<?xml version="1.0" encoding="iso-8859-1"?>
<!-- Generator: Adobe Illustrator 17.0.2, SVG Export Plug-In . SVG Version: 6.00 Build 0)  -->
<!DOCTYPE svg PUBLIC "-//W3C//DTD SVG 1.1//EN" "http://www.w3.org/Graphics/SVG/1.1/DTD/svg11.dtd">
<svg version="1.1" id="Capa_1" xmlns="http://www.w3.org/2000/svg" xmlns:xlink="http://www.w3.org/1999/xlink" x="0px" y="0px"
	 width="64px" height="64px" viewBox="0 0 64 64" style="enable-background:new 0 0 64 64;" xml:space="preserve">
<g>
	<path d="M34.711,54.206c-2.158-2.741,0.054-11.077,2.379-16.983l1.078,0.251c-1.743,4.622-4.583,13.442-2.659,17.577
		c0.557,1.198,1.479,2.021,2.668,2.381c0.035,0.01,0.069,0.019,0.103,0.026c0.816,0.19,1.652-0.283,1.898-1.098
		c0.256-0.848-0.224-1.743-1.071-2.001c-0.219-0.065-0.471-0.196-0.687-0.662c-1.343-2.882,1.165-11.218,3.33-16.581
		c0.571-0.439,0.994-1.066,1.116-1.84c1.676-10.618-3.09-14.891-5.442-16.32l2.671-11.449c0.402-1.725-0.671-3.451-2.396-3.854
		c-1.726-0.402-3.451,0.67-3.854,2.397l-2.671,11.447c-2.74,0.242-8.907,1.965-12.102,12.229c-0.031,0.099-0.037,0.197-0.057,0.296
		c-0.113,0.205-0.188,0.435-0.201,0.685c-0.297,5.682-1.764,15.494-4.435,17.64c-0.4,0.322-0.685,0.329-0.909,0.29
		c-0.874-0.144-1.701,0.447-1.847,1.32c-0.14,0.84,0.401,1.635,1.217,1.825c0.033,0.008,0.069,0.015,0.104,0.022
		c1.226,0.203,2.418-0.127,3.447-0.955c3.614-2.905,4.957-12.341,5.416-17.19l1.072,0.25c-0.503,6.352-2.208,15.012-5.399,16.536
		c-0.8,0.384-1.138,1.341-0.757,2.141c0.22,0.458,0.627,0.765,1.085,0.871c0.343,0.08,0.714,0.049,1.056-0.114
		c5.139-2.455,6.707-13.349,7.171-18.697l1.158,0.27c-0.886,7.872-3.04,16.235-5.124,17.042c-0.828,0.32-1.238,1.249-0.918,2.076
		c0.2,0.515,0.635,0.866,1.134,0.983c0.304,0.07,0.632,0.054,0.942-0.067c1.172-0.455,2.166-1.571,3.012-3.074
		c0.117,1.607,0.517,2.949,1.324,3.829c0.227,0.245,0.513,0.405,0.816,0.476c0.499,0.117,1.044-0.007,1.451-0.38
		c0.653-0.599,0.696-1.613,0.096-2.267c-1.492-1.627,0.223-9.919,2.862-17.312l1.148,0.268c-1.963,5.091-5.216,15.3-1.749,19.705
		c0.233,0.298,0.553,0.49,0.896,0.569c0.458,0.107,0.959,0.012,1.358-0.301C35.139,55.911,35.258,54.903,34.711,54.206z"/>
</g>
</svg>
