<?xml version="1.0" encoding="utf-8"?>
<!-- Generator: Adobe Illustrator 16.0.0, SVG Export Plug-In . SVG Version: 6.00 Build 0)  -->
<!DOCTYPE svg PUBLIC "-//W3C//DTD SVG 1.1//EN" "http://www.w3.org/Graphics/SVG/1.1/DTD/svg11.dtd">
<svg version="1.1" id="图层_1" xmlns="http://www.w3.org/2000/svg" xmlns:xlink="http://www.w3.org/1999/xlink" x="0px" y="0px"
	 width="93px" height="85.994px" viewBox="0 0 93 85.994" enable-background="new 0 0 93 85.994" xml:space="preserve">
<g>
	<rect x="34.119" y="11.303" fill="#FFFFFF" stroke="#AEE23B" stroke-miterlimit="10" width="6.707" height="6.707"/>
	<rect x="51.553" y="11.303" fill="#FFFFFF" stroke="#AEE23B" stroke-miterlimit="10" width="6.707" height="6.707"/>
	<rect x="42.836" y="11.303" fill="#FFFFFF" stroke="#AEE23B" stroke-miterlimit="10" width="6.707" height="6.707"/>
	<rect x="25.486" y="20.07" fill="#FFFFFF" stroke="#AEE23B" stroke-miterlimit="10" width="6.707" height="6.707"/>
	<rect x="42.836" y="20.07" fill="#FFFFFF" stroke="#AEE23B" stroke-miterlimit="10" width="6.707" height="6.707"/>
	<rect x="34.119" y="20.07" fill="#FFFFFF" stroke="#AEE23B" stroke-miterlimit="10" width="6.707" height="6.707"/>
	<rect x="59.982" y="20.07" fill="#FFFFFF" stroke="#AEE23B" stroke-miterlimit="10" width="6.707" height="6.707"/>
	<rect x="51.553" y="20.07" fill="#FFFFFF" stroke="#AEE23B" stroke-miterlimit="10" width="6.707" height="6.707"/>
	<rect x="34.119" y="64.574" fill="#FFFFFF" stroke="#AEE23B" stroke-miterlimit="10" width="6.707" height="6.708"/>
	<rect x="51.553" y="64.574" fill="#FFFFFF" stroke="#AEE23B" stroke-miterlimit="10" width="6.707" height="6.708"/>
	<rect x="42.836" y="64.574" fill="#FFFFFF" stroke="#AEE23B" stroke-miterlimit="10" width="6.707" height="6.708"/>
	<rect x="25.486" y="55.808" fill="#FFFFFF" stroke="#AEE23B" stroke-miterlimit="10" width="6.707" height="6.708"/>
	<rect x="42.836" y="55.808" fill="#FFFFFF" stroke="#AEE23B" stroke-miterlimit="10" width="6.707" height="6.708"/>
	<rect x="34.119" y="55.808" fill="#FFFFFF" stroke="#AEE23B" stroke-miterlimit="10" width="6.707" height="6.708"/>
	<rect x="59.984" y="55.808" fill="#FFFFFF" stroke="#AEE23B" stroke-miterlimit="10" width="6.705" height="6.708"/>
	<rect x="51.553" y="55.808" fill="#FFFFFF" stroke="#AEE23B" stroke-miterlimit="10" width="6.707" height="6.708"/>
	<rect x="16.912" y="28.942" fill="#FFFFFF" stroke="#AEE23B" stroke-miterlimit="10" width="6.707" height="6.708"/>
	<rect x="34.119" y="28.942" fill="#FFFFFF" stroke="#AEE23B" stroke-miterlimit="10" width="6.707" height="6.708"/>
	<rect x="25.486" y="28.942" fill="#FFFFFF" stroke="#AEE23B" stroke-miterlimit="10" width="6.707" height="6.708"/>
	<rect x="51.553" y="28.942" fill="#FFFFFF" stroke="#AEE23B" stroke-miterlimit="10" width="6.707" height="6.708"/>
	<rect x="42.836" y="28.942" fill="#FFFFFF" stroke="#AEE23B" stroke-miterlimit="10" width="6.707" height="6.708"/>
	<rect x="68.15" y="28.872" fill="#FFFFFF" stroke="#AEE23B" stroke-miterlimit="10" width="6.709" height="6.708"/>
	<rect x="59.982" y="28.942" fill="#FFFFFF" stroke="#AEE23B" stroke-miterlimit="10" width="6.707" height="6.708"/>
	<rect x="16.912" y="37.814" fill="#FFFFFF" stroke="#AEE23B" stroke-miterlimit="10" width="6.707" height="6.708"/>
	<rect x="34.119" y="37.814" fill="#FFFFFF" stroke="#AEE23B" stroke-miterlimit="10" width="6.707" height="6.708"/>
	<rect x="25.486" y="37.814" fill="#FFFFFF" stroke="#AEE23B" stroke-miterlimit="10" width="6.707" height="6.708"/>
	<rect x="51.553" y="37.814" fill="#FFFFFF" stroke="#AEE23B" stroke-miterlimit="10" width="6.707" height="6.708"/>
	<rect x="42.836" y="37.814" fill="#FFFFFF" stroke="#AEE23B" stroke-miterlimit="10" width="6.707" height="6.708"/>
	<rect x="68.15" y="37.744" fill="#FFFFFF" stroke="#AEE23B" stroke-miterlimit="10" width="6.709" height="6.707"/>
	<rect x="59.982" y="37.814" fill="#FFFFFF" stroke="#AEE23B" stroke-miterlimit="10" width="6.709" height="6.708"/>
	<rect x="16.912" y="46.828" fill="#FFFFFF" stroke="#AEE23B" stroke-miterlimit="10" width="6.707" height="6.708"/>
	<rect x="34.119" y="46.828" fill="#FFFFFF" stroke="#AEE23B" stroke-miterlimit="10" width="6.707" height="6.708"/>
	<rect x="25.486" y="46.828" fill="#FFFFFF" stroke="#AEE23B" stroke-miterlimit="10" width="6.707" height="6.708"/>
	<rect x="51.553" y="46.828" fill="#FFFFFF" stroke="#AEE23B" stroke-miterlimit="10" width="6.707" height="6.708"/>
	<rect x="42.836" y="46.828" fill="#FFFFFF" stroke="#AEE23B" stroke-miterlimit="10" width="6.707" height="6.708"/>
	<rect x="68.15" y="46.758" fill="#FFFFFF" stroke="#AEE23B" stroke-miterlimit="10" width="6.707" height="6.707"/>
	<rect x="59.982" y="46.828" fill="#FFFFFF" stroke="#AEE23B" stroke-miterlimit="10" width="6.709" height="6.708"/>
</g>
</svg>
