<?xml version="1.0" encoding="utf-8"?>
<!-- Generator: Adobe Illustrator 16.0.0, SVG Export Plug-In . SVG Version: 6.00 Build 0)  -->
<!DOCTYPE svg PUBLIC "-//W3C//DTD SVG 1.1//EN" "http://www.w3.org/Graphics/SVG/1.1/DTD/svg11.dtd">
<svg version="1.1" id="图层_1" xmlns="http://www.w3.org/2000/svg" xmlns:xlink="http://www.w3.org/1999/xlink" x="0px" y="0px"
	 width="170.079px" height="170.079px" viewBox="0 0 170.079 170.079" enable-background="new 0 0 170.079 170.079"
	 xml:space="preserve">
<g>
	<path fill-rule="evenodd" clip-rule="evenodd" fill="#FF9466" d="M39.063,83.346c0.036-25.425,20.756-46.113,46.039-45.966
		c25.49,0.145,46.05,20.718,45.94,45.97c-0.106,25.57-20.632,46.06-46.082,46.012C59.594,129.311,39.025,108.691,39.063,83.346z
		 M124.951,83.412c0.04-21.983-17.834-39.881-39.879-39.937C63.15,43.423,45.223,61.303,45.16,83.284
		c-0.063,21.986,17.805,39.924,39.829,39.985C106.958,123.329,124.912,105.42,124.951,83.412z"/>
	<path fill-rule="evenodd" clip-rule="evenodd" fill="#FF9466" d="M106.666,63.012c1.4,2.034,2.873,3.876,4.03,5.9
		c9.744,17.042,0.054,38.898-19.099,43.183c-5.361,1.199-10.649,0.953-15.861-0.773c-0.533-0.176-0.863-0.125-1.283,0.266
		c-1.168,1.088-2.763,1.284-4.158,0.602c-1.385-0.674-2.237-2.084-2.069-3.658c0.074-0.708-0.142-1.069-0.69-1.493
		c-8.398-6.497-12.441-15.077-11.859-25.674c0.379-6.932,3.104-12.969,7.834-18.077c0.145-0.156,0.273-0.395,0.45-0.439
		c0.288-0.073,0.714-0.133,0.888,0.021c0.158,0.142,0.155,0.609,0.055,0.865c-0.117,0.291-0.418,0.514-0.645,0.759
		c-11.195,12.195-9.221,31.806,4.184,41.531c0.17,0.125,0.358,0.22,0.559,0.343c1.342-1.297,2.865-1.808,4.592-0.958
		c1.799,0.886,2.322,2.463,2.08,4.345c9.568,3.818,24.541,1.702,32.905-11.035c7.777-11.842,4.874-26.58-3.067-34.451
		c-2.973,3.223-5.943,6.44-8.756,9.488c1.084,1.839,2.344,3.491,3.1,5.351c2.337,5.748,1.484,11.152-2.256,16.096
		c-0.31,0.412-0.494,0.723-0.32,1.291c0.488,1.59-0.107,3.179-1.418,4.112c-1.31,0.929-3.023,0.958-4.355-0.019
		c-0.451-0.331-0.807-0.365-1.313-0.194c-9.73,3.27-19.836-3.121-21.061-13.337c-0.578-4.814,0.857-9.022,4.039-12.653
		c0.039-0.045,0.084-0.088,0.124-0.133c0.325-0.379,0.714-0.665,1.166-0.265c0.456,0.403,0.206,0.81-0.139,1.178
		c-1.546,1.654-2.702,3.551-3.302,5.728c-1.574,5.719-0.36,10.813,3.943,14.909c4.214,4.012,9.269,4.984,14.834,3.282
		c0.082-0.026,0.155-0.088,0.297-0.168c-0.476-1.903-0.107-3.581,1.68-4.646c1.489-0.889,2.977-0.673,4.357,0.335
		c4.561-4.444,5.191-14-0.693-19.686c-0.135,0.229-0.237,0.497-0.417,0.692c-1.666,1.823-3.333,3.646-5.028,5.442
		c-0.383,0.405-0.473,0.704-0.236,1.259C90.57,84.24,90.3,86.06,88.9,87.6c-1.398,1.536-3.189,2.013-5.166,1.365
		c-1.973-0.646-3.104-2.102-3.369-4.157c-0.441-3.432,2.915-6.212,6.32-5.207c0.625,0.182,0.922,0.033,1.313-0.389
		c5.936-6.469,11.889-12.927,17.836-19.386c0.166-0.18,0.332-0.358,0.498-0.538c0.836-0.889,1.631-1.055,2.277-0.473
		c0.668,0.601,0.571,1.452-0.276,2.386C107.759,61.83,107.18,62.453,106.666,63.012z M88.364,84.314
		c0.014-1.659-1.403-3.102-3.054-3.11c-1.73-0.01-3.131,1.388-3.131,3.123c0,1.657,1.431,3.079,3.09,3.072
		C86.932,87.392,88.35,85.979,88.364,84.314z"/>
	<path fill-rule="evenodd" clip-rule="evenodd" fill="#FF9466" d="M122.234,86.475c0,1.295-1.031,2.335-2.309,2.33
		c-1.281-0.003-2.3-1.045-2.297-2.342c0.004-1.303,1.02-2.325,2.307-2.323C121.217,84.143,122.236,85.178,122.234,86.475z"/>
	<path fill-rule="evenodd" clip-rule="evenodd" fill="#FF9466" d="M55.681,96.728c-0.016,1.268-1.085,2.329-2.344,2.32
		c-1.256-0.01-2.314-1.093-2.299-2.356c0.016-1.277,1.067-2.316,2.339-2.314C54.627,94.378,55.695,95.467,55.681,96.728z"/>
</g>
</svg>
