<?xml version="1.0" encoding="utf-8"?>
<!-- Generator: Adobe Illustrator 16.0.0, SVG Export Plug-In . SVG Version: 6.00 Build 0)  -->
<!DOCTYPE svg PUBLIC "-//W3C//DTD SVG 1.1//EN" "http://www.w3.org/Graphics/SVG/1.1/DTD/svg11.dtd">
<svg version="1.1" id="图层_1" xmlns="http://www.w3.org/2000/svg" xmlns:xlink="http://www.w3.org/1999/xlink" x="0px" y="0px"
	 width="170.079px" height="170.079px" viewBox="0 0 170.079 170.079" enable-background="new 0 0 170.079 170.079"
	 xml:space="preserve">
<g>
	<path fill-rule="evenodd" clip-rule="evenodd" fill="none" stroke="#66CDFF" stroke-width="5.314" stroke-miterlimit="10" d="
		M58.528,119.836c-2.667-2.676-5.271-5.269-7.834-7.902c-0.199-0.204-0.247-0.76-0.121-1.043c0.765-1.723,1.605-3.411,2.413-5.113
		c2.498-5.257,0.197-10.791-5.288-12.735c-1.676-0.593-3.333-1.247-5.03-1.78c-0.784-0.244-0.986-0.64-0.976-1.424
		c0.043-3.219,0.04-6.44,0.002-9.661c-0.009-0.737,0.176-1.119,0.923-1.356c1.794-0.571,3.56-1.233,5.33-1.877
		c5.159-1.874,7.466-7.438,5.148-12.418c-0.825-1.771-1.664-3.538-2.529-5.29c-0.227-0.458-0.287-0.761,0.135-1.173
		c2.474-2.427,4.923-4.878,7.352-7.352c0.399-0.403,0.702-0.394,1.169-0.163c1.752,0.865,3.52,1.701,5.292,2.529
		c4.98,2.328,10.542,0.043,12.429-5.115c0.673-1.833,1.318-3.678,1.949-5.527c0.184-0.538,0.458-0.752,1.057-0.746
		c3.397,0.029,6.793,0.031,10.188-0.001c0.605-0.005,0.869,0.223,1.052,0.754c0.631,1.849,1.282,3.691,1.95,5.529
		c1.854,5.098,7.407,7.419,12.34,5.151c1.806-0.829,3.586-1.728,5.397-2.55c0.273-0.125,0.797-0.144,0.973,0.026
		c2.432,2.372,4.824,4.781,7.225,7.184c0.244,0.244,0.477,0.501,0.746,0.785c-0.908,1.906-1.81,3.792-2.705,5.677
		c-2.51,5.283-0.264,10.777,5.221,12.761c1.74,0.629,3.479,1.263,5.227,1.854c0.574,0.194,0.829,0.458,0.824,1.111
		c-0.035,3.359-0.04,6.722,0.002,10.081c0.008,0.706-0.283,0.971-0.885,1.171c-1.783,0.602-3.553,1.249-5.328,1.882
		c-5.15,1.83-7.51,7.416-5.215,12.389c0.922,1.996,1.891,3.968,2.799,5.869c-2.787,2.78-5.533,5.517-8.4,8.376
		c-1.73-0.823-3.641-1.731-5.551-2.643c-5.25-2.507-10.763-0.235-12.747,5.257c-0.629,1.738-1.266,3.473-1.853,5.228
		c-0.199,0.595-0.497,0.803-1.128,0.795c-3.359-0.029-6.722-0.029-10.081,0c-0.631,0.007-0.929-0.202-1.13-0.797
		c-0.605-1.818-1.259-3.622-1.911-5.428c-1.874-5.17-7.423-7.495-12.403-5.186C62.562,117.89,60.588,118.854,58.528,119.836z"/>
	
		<polygon fill-rule="evenodd" clip-rule="evenodd" fill="#66CDFF" stroke="#66CDFF" stroke-width="1.7713" stroke-linejoin="round" stroke-miterlimit="10" points="
		76.727,71.361 100.476,84.921 76.86,98.707 	"/>
</g>
</svg>
