<?xml version="1.0" encoding="utf-8"?>
<!-- Generator: Adobe Illustrator 16.0.0, SVG Export Plug-In . SVG Version: 6.00 Build 0)  -->
<!DOCTYPE svg PUBLIC "-//W3C//DTD SVG 1.1//EN" "http://www.w3.org/Graphics/SVG/1.1/DTD/svg11.dtd">
<svg version="1.1" id="图层_1" xmlns="http://www.w3.org/2000/svg" xmlns:xlink="http://www.w3.org/1999/xlink" x="0px" y="0px"
	 width="170.079px" height="170.079px" viewBox="0 0 170.079 170.079" enable-background="new 0 0 170.079 170.079"
	 xml:space="preserve">
<g>
	<path fill-rule="evenodd" clip-rule="evenodd" fill="#FFFFFF" d="M86.535,59.917c-10.199-0.016-18.189,5.057-21.75,13.061
		c-3.102,6.975-2.711,13.855,1.029,20.51c0.939,1.67,2.68,2.119,3.469,0.822c0.459-0.758,0.432-2.221,0-3.041
		c-2.332-4.461-2.973-9.061-1.672-13.914c2.438-9.107,11.646-14.719,21.113-12.894c9.029,1.738,15.568,10.741,14.168,19.86
		c-0.383,2.49-1.488,4.893-2.441,7.266c-0.736,1.828-0.008,3.691,1.664,3.395c0.824-0.145,1.77-0.984,2.203-1.764
		c4.051-7.293,4.164-14.73,0.055-21.98C100.178,63.833,93.537,60.252,86.535,59.917z"/>
	<path fill-rule="evenodd" clip-rule="evenodd" fill="#FFFFFF" d="M87.213,42.971c2.014,1.602,3.631,2.894,5.254,4.176
		c1.135,0.895,2.252,0.854,3.131-0.307c0.828-1.094,0.523-2.156-0.492-2.984c-2.834-2.311-5.629-4.679-8.588-6.818
		c-0.658-0.478-2.225-0.535-2.857-0.074c-3.059,2.219-5.963,4.651-8.869,7.071c-0.945,0.787-1.061,1.872-0.275,2.864
		c0.775,0.981,1.789,1.143,2.844,0.421c0.674-0.462,1.289-1.009,1.936-1.514c1.094-0.863,2.191-1.725,3.568-2.806
		c0,1.914-0.002,3.363,0,4.809c0,2.588-0.01,5.172,0.004,7.758c0.006,1.447,0.365,2.686,2.113,2.789
		c1.443,0.085,2.182-0.896,2.23-2.861c0.016-0.567,0.002-1.135,0.002-1.702C87.213,50.338,87.213,46.883,87.213,42.971z"/>
	<path fill-rule="evenodd" clip-rule="evenodd" fill="#FFFFFF" d="M83.9,133.42c-2.891-2.395-5.771-4.803-8.682-7.176
		c-1.127-0.918-1.662-1.979-0.717-3.246c0.875-1.168,2.008-1.145,3.135-0.252c1.617,1.279,3.234,2.553,5.227,4.125
		c0-3.328-0.002-6.248,0-9.168c0-1.26-0.033-2.523,0.016-3.783c0.047-1.328,0.563-2.393,2.066-2.439
		c1.613-0.053,2.232,1.023,2.25,2.443c0.043,3.721,0.016,7.441,0.02,11.162c0.002,0.438,0.041,0.873,0.08,1.695
		c1.701-1.334,3.221-2.486,4.695-3.695c1.201-0.984,2.463-1.572,3.586-0.08c1.107,1.471,0.18,2.514-1.014,3.477
		c-2.822,2.279-5.596,4.623-8.387,6.938C85.416,133.42,84.66,133.42,83.9,133.42z"/>
	<path fill-rule="evenodd" clip-rule="evenodd" fill="#FFFFFF" d="M36.527,84.153c2.352-2.965,4.725-5.912,7.049-8.9
		c0.924-1.189,1.953-1.857,3.369-0.922c1.215,0.801,1.17,1.988-0.066,3.588c-1.15,1.49-2.332,2.959-3.703,4.701
		c0.766,0.078,1.277,0.174,1.789,0.176c3.408,0.016,6.816,0.002,10.229,0.01c2.297,0.006,3.4,0.711,3.268,2.195
		c-0.176,1.963-1.635,2.102-3.191,2.092c-3.908-0.02-7.816-0.006-12.182-0.006c1.404,1.787,2.553,3.313,3.771,4.781
		c0.998,1.201,1.592,2.457,0.107,3.584c-1.453,1.098-2.523,0.221-3.494-0.99c-2.277-2.834-4.627-5.613-6.945-8.412
		C36.527,85.415,36.527,84.784,36.527,84.153z"/>
	<path fill-rule="evenodd" clip-rule="evenodd" fill="#FFFFFF" d="M133.549,86.049c-2.398,2.898-4.789,5.801-7.195,8.695
		c-1.088,1.311-2.445,1.564-3.4,0.613c-0.967-0.963-0.91-1.994-0.072-3.041c1.289-1.607,2.555-3.236,4.127-5.23
		c-2.506,0-4.607,0-6.713,0c-1.895,0-3.787-0.023-5.682,0.006c-1.523,0.023-2.846-0.26-3-2.09c-0.125-1.449,0.949-2.186,3.078-2.195
		c3.346-0.014,6.691-0.004,10.037-0.004c0.611,0,1.223,0,2.297,0c-1.451-1.854-2.645-3.359-3.816-4.881
		c-1.238-1.611-1.289-2.781-0.076-3.586c1.418-0.938,2.443-0.277,3.369,0.916c2.322,2.988,4.693,5.936,7.047,8.9
		C133.549,84.784,133.549,85.415,133.549,86.049z"/>
	<path fill="#FFFFFF" d="M97.535,82.639c-0.018-7.104-5.512-12.592-12.564-12.576c-6.928,0.012-12.414,5.529-12.434,12.521
		c-0.016,6.559-0.002,13.117-0.002,19.676c0,0.6,0,1.201,0,1.795c8.461,0,16.637,0,25.004,0c0-0.641,0-1.189,0-1.74
		C97.539,95.756,97.549,89.196,97.535,82.639z M78.916,81.538c0.428-3.213,3.113-5.236,6.432-5.127
		c3.127,0.1,5.547,2.406,5.859,5.578c0.684,6.904,0.684,6.904-6.268,6.904c-1.641,0-3.289,0.08-4.918-0.053
		c-0.465-0.039-1.238-0.688-1.252-1.076C78.695,85.69,78.643,83.586,78.916,81.538z M90.889,99.651
		c-1.939,0.156-3.898,0.059-5.85,0.059c-2.016-0.002-4.033,0.084-6.039-0.059c-0.547-0.039-1.045-0.768-1.563-1.18
		c0.506-0.428,1.004-1.213,1.521-1.227c4.027-0.104,8.057-0.104,12.08-0.002c0.535,0.014,1.053,0.773,1.576,1.189
		C92.041,98.858,91.492,99.602,90.889,99.651z"/>
	<path fill-rule="evenodd" clip-rule="evenodd" fill="#FFFFFF" d="M86.535,59.917c7.002,0.336,13.643,3.916,17.838,11.32
		c4.109,7.25,3.996,14.688-0.055,21.98c-0.434,0.779-1.379,1.619-2.203,1.764c-1.672,0.297-2.4-1.566-1.664-3.395
		c0.953-2.373,2.059-4.775,2.441-7.266c1.4-9.119-5.139-18.122-14.168-19.86c-9.467-1.825-18.676,3.786-21.113,12.894
		c-1.301,4.854-0.66,9.453,1.672,13.914c0.432,0.82,0.459,2.283,0,3.041c-0.789,1.297-2.529,0.848-3.469-0.822
		c-3.74-6.654-4.131-13.535-1.029-20.51C68.346,64.973,76.336,59.901,86.535,59.917z"/>
	<path fill-rule="evenodd" clip-rule="evenodd" fill="#FFFFFF" d="M87.213,42.971c0,3.912,0,7.367,0,10.821
		c0,0.567,0.014,1.135-0.002,1.702c-0.049,1.965-0.787,2.946-2.23,2.861c-1.748-0.104-2.107-1.342-2.113-2.789
		c-0.014-2.586-0.004-5.17-0.004-7.758c-0.002-1.445,0-2.895,0-4.809c-1.377,1.081-2.475,1.942-3.568,2.806
		c-0.646,0.505-1.262,1.052-1.936,1.514c-1.055,0.722-2.068,0.561-2.844-0.421c-0.785-0.992-0.67-2.077,0.275-2.864
		c2.906-2.42,5.811-4.853,8.869-7.071c0.633-0.461,2.199-0.403,2.857,0.074c2.959,2.14,5.754,4.508,8.588,6.818
		c1.016,0.828,1.32,1.891,0.492,2.984c-0.879,1.161-1.996,1.201-3.131,0.307C90.844,45.865,89.227,44.573,87.213,42.971z"/>
</g>
</svg>
