<?xml version="1.0" encoding="utf-8"?>
<!-- Generator: Adobe Illustrator 16.0.0, SVG Export Plug-In . SVG Version: 6.00 Build 0)  -->
<!DOCTYPE svg PUBLIC "-//W3C//DTD SVG 1.1//EN" "http://www.w3.org/Graphics/SVG/1.1/DTD/svg11.dtd">
<svg version="1.1" id="图层_1" xmlns="http://www.w3.org/2000/svg" xmlns:xlink="http://www.w3.org/1999/xlink" x="0px" y="0px"
	 width="170.079px" height="170.079px" viewBox="0 0 170.079 170.079" enable-background="new 0 0 170.079 170.079"
	 xml:space="preserve">
<path fill-rule="evenodd" clip-rule="evenodd" fill="none" stroke="#FFFFFF" stroke-width="4" stroke-miterlimit="10" d="
	M58.528,119.836c-2.668-2.676-5.271-5.27-7.835-7.902c-0.198-0.203-0.247-0.76-0.121-1.043c0.765-1.723,1.605-3.412,2.413-5.113
	c2.498-5.258,0.197-10.791-5.288-12.734c-1.676-0.594-3.333-1.248-5.03-1.781c-0.783-0.244-0.985-0.639-0.976-1.424
	c0.044-3.219,0.04-6.439,0.002-9.66c-0.009-0.736,0.177-1.119,0.924-1.355c1.794-0.572,3.56-1.234,5.329-1.877
	c5.159-1.875,7.466-7.439,5.148-12.419c-0.825-1.771-1.664-3.538-2.529-5.29c-0.227-0.458-0.287-0.761,0.135-1.172
	c2.474-2.428,4.924-4.879,7.353-7.353c0.399-0.403,0.702-0.394,1.169-0.163c1.752,0.865,3.521,1.701,5.292,2.529
	c4.979,2.328,10.541,0.043,12.429-5.115c0.673-1.833,1.317-3.678,1.949-5.526c0.184-0.538,0.458-0.753,1.057-0.745
	c3.397,0.029,6.793,0.031,10.188-0.002c0.605-0.006,0.869,0.223,1.052,0.754c0.632,1.85,1.282,3.691,1.95,5.529
	c1.854,5.098,7.406,7.418,12.34,5.15c1.807-0.828,3.587-1.728,5.397-2.549c0.273-0.125,0.797-0.145,0.973,0.025
	c2.432,2.371,4.824,4.781,7.225,7.184c0.244,0.244,0.477,0.502,0.746,0.785c-0.908,1.906-1.81,3.793-2.705,5.678
	c-2.51,5.283-0.264,10.777,5.221,12.762c1.74,0.629,3.479,1.262,5.227,1.854c0.574,0.193,0.83,0.459,0.824,1.111
	c-0.035,3.359-0.039,6.721,0.002,10.08c0.008,0.707-0.283,0.971-0.885,1.172c-1.783,0.602-3.553,1.248-5.328,1.881
	c-5.15,1.83-7.51,7.416-5.215,12.391c0.922,1.996,1.891,3.967,2.799,5.869c-2.787,2.779-5.533,5.516-8.4,8.375
	c-1.73-0.822-3.641-1.73-5.551-2.643c-5.25-2.508-10.763-0.236-12.747,5.256c-0.63,1.738-1.267,3.475-1.853,5.229
	c-0.199,0.594-0.497,0.803-1.128,0.795c-3.359-0.029-6.723-0.029-10.081,0c-0.632,0.008-0.93-0.201-1.13-0.797
	c-0.605-1.818-1.26-3.623-1.911-5.428c-1.874-5.172-7.423-7.496-12.403-5.188C62.561,117.889,60.587,118.854,58.528,119.836z"/>
<polygon fill-rule="evenodd" clip-rule="evenodd" fill="#FFFFFF" stroke="#FFFFFF" stroke-width="1.7713" stroke-linejoin="round" stroke-miterlimit="10" points="
	76.727,71.362 100.476,84.92 76.86,98.706 "/>
</svg>
