<?xml version="1.0" encoding="utf-8"?>
<!-- Generator: Adobe Illustrator 16.0.0, SVG Export Plug-In . SVG Version: 6.00 Build 0)  -->
<!DOCTYPE svg PUBLIC "-//W3C//DTD SVG 1.1//EN" "http://www.w3.org/Graphics/SVG/1.1/DTD/svg11.dtd">
<svg version="1.1" id="图层_1" xmlns="http://www.w3.org/2000/svg" xmlns:xlink="http://www.w3.org/1999/xlink" x="0px" y="0px"
	 width="170.079px" height="170.079px" viewBox="0 0 170.079 170.079" enable-background="new 0 0 170.079 170.079"
	 xml:space="preserve">
<g>
	<path fill-rule="evenodd" clip-rule="evenodd" fill="#669FFF" d="M86.535,59.917c-10.199-0.016-18.189,5.056-21.75,13.062
		c-3.102,6.975-2.711,13.854,1.029,20.509c0.939,1.671,2.68,2.119,3.469,0.822c0.459-0.758,0.432-2.219,0-3.041
		c-2.332-4.459-2.973-9.059-1.672-13.913c2.438-9.107,11.646-14.719,21.113-12.894c9.029,1.738,15.568,10.742,14.168,19.86
		c-0.383,2.491-1.488,4.894-2.441,7.265c-0.736,1.828-0.008,3.691,1.664,3.396c0.824-0.145,1.77-0.984,2.203-1.764
		c4.051-7.293,4.164-14.729,0.055-21.979C100.178,63.833,93.537,60.252,86.535,59.917z"/>
	<path fill-rule="evenodd" clip-rule="evenodd" fill="#669FFF" d="M87.213,42.971c2.014,1.602,3.631,2.894,5.254,4.176
		c1.135,0.895,2.252,0.855,3.131-0.306c0.828-1.093,0.523-2.157-0.492-2.984c-2.834-2.311-5.629-4.679-8.588-6.819
		c-0.658-0.478-2.225-0.535-2.857-0.074c-3.059,2.219-5.963,4.651-8.869,7.071c-0.945,0.787-1.061,1.872-0.275,2.865
		c0.775,0.981,1.789,1.142,2.844,0.42c0.674-0.462,1.289-1.009,1.936-1.514c1.094-0.863,2.191-1.725,3.568-2.806
		c0,1.915-0.002,3.363,0,4.809c0,2.588-0.01,5.172,0.004,7.758c0.006,1.446,0.365,2.685,2.113,2.789
		c1.443,0.085,2.182-0.896,2.23-2.861c0.016-0.567,0.002-1.135,0.002-1.702C87.213,50.338,87.213,46.884,87.213,42.971z"/>
	<path fill-rule="evenodd" clip-rule="evenodd" fill="#669FFF" d="M83.9,133.421c-2.891-2.396-5.771-4.804-8.682-7.177
		c-1.127-0.918-1.662-1.979-0.717-3.245c0.875-1.169,2.008-1.145,3.135-0.252c1.617,1.278,3.234,2.553,5.227,4.125
		c0-3.328-0.002-6.248,0-9.168c0-1.261-0.033-2.524,0.016-3.783c0.047-1.329,0.563-2.393,2.066-2.441
		c1.613-0.052,2.232,1.024,2.25,2.444c0.043,3.721,0.016,7.442,0.02,11.163c0.002,0.436,0.041,0.872,0.08,1.695
		c1.701-1.334,3.221-2.488,4.695-3.697c1.201-0.984,2.463-1.571,3.586-0.08c1.107,1.47,0.18,2.513-1.014,3.477
		c-2.822,2.28-5.596,4.622-8.387,6.938C85.416,133.421,84.66,133.421,83.9,133.421z"/>
	<path fill-rule="evenodd" clip-rule="evenodd" fill="#669FFF" d="M36.527,84.153c2.352-2.965,4.725-5.913,7.049-8.9
		c0.924-1.19,1.953-1.858,3.369-0.922c1.215,0.801,1.17,1.987-0.066,3.587c-1.15,1.491-2.332,2.96-3.703,4.702
		c0.766,0.078,1.277,0.173,1.789,0.176c3.408,0.014,6.816,0.002,10.229,0.009c2.297,0.007,3.4,0.711,3.268,2.195
		c-0.176,1.963-1.635,2.102-3.191,2.093c-3.908-0.021-7.816-0.007-12.182-0.007c1.404,1.787,2.553,3.313,3.771,4.781
		c0.998,1.202,1.592,2.458,0.107,3.584c-1.453,1.097-2.523,0.22-3.494-0.991c-2.277-2.833-4.627-5.612-6.945-8.412
		C36.527,85.416,36.527,84.784,36.527,84.153z"/>
	<path fill-rule="evenodd" clip-rule="evenodd" fill="#669FFF" d="M133.549,86.049c-2.398,2.899-4.789,5.802-7.195,8.696
		c-1.088,1.311-2.445,1.565-3.4,0.614c-0.967-0.963-0.91-1.994-0.072-3.041c1.289-1.608,2.555-3.236,4.127-5.231
		c-2.506,0-4.607,0-6.713,0c-1.895,0-3.787-0.022-5.682,0.007c-1.523,0.023-2.846-0.261-3-2.091
		c-0.125-1.448,0.949-2.185,3.078-2.195c3.346-0.014,6.691-0.003,10.037-0.003c0.611,0,1.223,0,2.297,0
		c-1.451-1.854-2.645-3.359-3.816-4.882c-1.238-1.61-1.289-2.781-0.076-3.586c1.418-0.938,2.443-0.277,3.369,0.917
		c2.322,2.987,4.693,5.935,7.047,8.9C133.549,84.784,133.549,85.416,133.549,86.049z"/>
	<path fill="#669FFF" d="M97.535,82.639c-0.018-7.103-5.512-12.591-12.564-12.576c-6.928,0.012-12.414,5.528-12.434,12.521
		c-0.016,6.56-0.002,13.119-0.002,19.677c0,0.6,0,1.2,0,1.795c8.461,0,16.637,0,25.004,0c0-0.642,0-1.19,0-1.74
		C97.539,95.756,97.549,89.197,97.535,82.639z M78.916,81.537c0.428-3.212,3.113-5.236,6.432-5.127
		c3.127,0.1,5.547,2.406,5.859,5.579c0.684,6.905,0.684,6.905-6.268,6.905c-1.641-0.001-3.289,0.08-4.918-0.053
		c-0.465-0.04-1.238-0.687-1.252-1.076C78.695,85.69,78.643,83.587,78.916,81.537z M90.889,99.65
		c-1.939,0.157-3.898,0.059-5.85,0.059c-2.016-0.001-4.033,0.085-6.039-0.059c-0.547-0.038-1.045-0.767-1.563-1.178
		c0.506-0.429,1.004-1.214,1.521-1.228c4.027-0.102,8.057-0.102,12.08-0.002c0.535,0.014,1.053,0.775,1.576,1.19
		C92.041,98.858,91.492,99.602,90.889,99.65z"/>
	<path fill-rule="evenodd" clip-rule="evenodd" fill="#669FFF" d="M86.535,59.917c7.002,0.335,13.643,3.916,17.838,11.321
		c4.109,7.25,3.996,14.687-0.055,21.979c-0.434,0.78-1.379,1.619-2.203,1.764c-1.672,0.296-2.4-1.567-1.664-3.396
		c0.953-2.372,2.059-4.774,2.441-7.265c1.4-9.118-5.139-18.122-14.168-19.86c-9.467-1.825-18.676,3.787-21.113,12.894
		c-1.301,4.854-0.66,9.454,1.672,13.913c0.432,0.822,0.459,2.283,0,3.041c-0.789,1.297-2.529,0.849-3.469-0.822
		c-3.74-6.654-4.131-13.534-1.029-20.509C68.346,64.973,76.336,59.901,86.535,59.917z"/>
	<path fill-rule="evenodd" clip-rule="evenodd" fill="#669FFF" d="M87.213,42.971c0,3.913,0,7.368,0,10.822
		c0,0.567,0.014,1.135-0.002,1.702c-0.049,1.965-0.787,2.946-2.23,2.861c-1.748-0.104-2.107-1.342-2.113-2.789
		c-0.014-2.586-0.004-5.17-0.004-7.758c-0.002-1.446,0-2.894,0-4.809c-1.377,1.081-2.475,1.942-3.568,2.806
		c-0.646,0.505-1.262,1.052-1.936,1.514c-1.055,0.721-2.068,0.561-2.844-0.42c-0.785-0.993-0.67-2.078,0.275-2.865
		c2.906-2.42,5.811-4.852,8.869-7.071c0.633-0.46,2.199-0.403,2.857,0.074c2.959,2.14,5.754,4.508,8.588,6.819
		c1.016,0.827,1.32,1.891,0.492,2.984c-0.879,1.161-1.996,1.201-3.131,0.306C90.844,45.865,89.227,44.573,87.213,42.971z"/>
</g>
</svg>
