<?xml version="1.0" encoding="utf-8"?>
<!-- Generator: Adobe Illustrator 16.0.0, SVG Export Plug-In . SVG Version: 6.00 Build 0)  -->
<!DOCTYPE svg PUBLIC "-//W3C//DTD SVG 1.1//EN" "http://www.w3.org/Graphics/SVG/1.1/DTD/svg11.dtd">
<svg version="1.1" id="图层_1" xmlns="http://www.w3.org/2000/svg" xmlns:xlink="http://www.w3.org/1999/xlink" x="0px" y="0px"
	 width="170.079px" height="170.079px" viewBox="0 0 170.079 170.079" enable-background="new 0 0 170.079 170.079"
	 xml:space="preserve">
<path fill-rule="evenodd" clip-rule="evenodd" fill="none" stroke="#FFFFFF" stroke-width="5.314" stroke-miterlimit="10" d="
	M86.278,116.711l-52.756,7.691c-8.018,0-14.517-6.497-14.517-14.516V61.425c0-8.017,6.499-14.515,14.517-14.515h92.682
	c8.018,0,14.517,6.498,14.517,14.515L137.742,73.1"/>
<path fill-rule="evenodd" clip-rule="evenodd" fill="#FFFFFF" d="M137.149,134.183c-5.714,2.884-11.37,1.406-16.982-0.31
	c-6.452-1.977-12.493-4.977-18.675-7.632c-3.814-1.64-7.717-3.099-11.633-4.491c-3.65-1.299-6.094-4.25-6.167-7.794
	c-0.093-4.487,4.083-8.381,8.558-8.071c2.534,0.178,5.079,0.202,7.616,0.295c0.022,0.082,0.043,0.165,0.066,0.246
	c-0.152-0.202-0.291-0.418-0.457-0.61c-2.678-3.077-5.371-6.14-8.018-9.241c-0.46-0.545-0.856-0.615-1.513-0.451
	c-6.585,1.654-12.611,0.441-17.772-3.988c-6.354-5.453-8.35-14.125-5.145-21.914c4.996-12.14,20.078-16.391,30.346-8.237
	c5.57,4.42,7.857,10.372,7.117,17.461c-0.042,0.39-0.101,0.772-0.175,1.33c2.968-2.228,5.98-2.478,9.23-1.012
	c0.83-2.396,2.316-4.216,4.676-5.183c2.359-0.967,4.71-0.838,7.035,0.32c0.891-2.504,2.442-4.318,4.9-5.279
	c3.159-1.235,6.686-0.393,8.903,2.151c4.463,5.122,8.973,10.435,13.737,15.743c5.011,5.589,6.836,12.104,6.071,19.453
	c-0.37,3.554-1.325,6.949-2.771,10.211c-0.095,0.215-0.135,0.454-0.204,0.682C149.645,123.303,143.398,128.741,137.149,134.183z
	 M94.064,93.497c1.545,1.775,3.089,3.549,4.636,5.324c2.553,2.936,5.106,5.871,7.661,8.803c0.573,0.652,0.749,1.37,0.384,2.17
	c-0.381,0.82-1.048,1.221-1.946,1.229c-0.344,0.004-0.688-0.043-1.033-0.072c-3.97-0.326-7.937-0.68-11.908-0.974
	c-2.181-0.164-3.881,1.354-4.082,3.532c-0.189,2.019,1.183,3.631,3.558,4.442c2.956,1.015,5.911,2.054,8.799,3.252
	c5.977,2.485,11.882,5.147,17.869,7.608c3.457,1.42,7.046,2.463,10.786,2.845c2.691,0.273,5.224-0.011,7.393-1.925
	c5.176-4.566,10.41-9.07,15.595-13.621c0.406-0.354,0.787-0.855,0.936-1.357c0.733-2.521,1.617-5.031,2.017-7.606
	c0.913-5.864-0.263-11.353-4.129-15.966c-4.757-5.672-9.692-11.197-14.566-16.771c-1.042-1.189-2.399-1.546-3.925-1.172
	c-2.94,0.723-3.845,4.272-2.366,6.113c0.965,1.195,0.782,2.378-0.237,3.133c-0.952,0.703-2.003,0.461-3.014-0.694
	c-0.742-0.851-1.467-1.718-2.228-2.554c-1.365-1.494-3.677-1.672-5.277-0.427c-1.823,1.417-2.164,3.501-0.9,5.477
	c0.813,1.269,0.716,2.314-0.282,3.075c-0.915,0.694-2.019,0.477-2.955-0.593c-0.785-0.896-1.545-1.819-2.358-2.691
	c-1.308-1.407-3.325-1.589-5.058-0.502c-1.542,0.968-2.258,3.017-1.59,4.685c0.208,0.514,0.573,0.963,0.835,1.458
	c0.453,0.858,0.195,1.985-0.555,2.536c-0.782,0.572-1.894,0.514-2.593-0.156c-0.228-0.214-0.424-0.461-0.629-0.698
	C97.856,85.6,92.81,79.799,87.757,74.006c-1.695-1.946-4.508-1.884-6.131,0.119c-1.353,1.673-1.228,3.664,0.388,5.525
	C86.024,84.271,90.046,88.881,94.064,93.497z M99.748,81.67c1.998-5.248,0.481-12.634-5.36-16.875
	c-6.331-4.597-14.743-3.68-20.521,2.146c-5.037,5.08-5.651,13.883-1.377,19.637c4.14,5.578,11.042,7.039,15.233,5.738
	c-3.021-3.471-6.028-6.922-9.026-10.383c-0.368-0.422-0.731-0.865-1.001-1.354c-2.1-3.749-1.022-8.269,2.669-10.744
	c3.418-2.29,7.933-1.51,10.433,1.514C93.671,74.83,96.707,78.178,99.748,81.67z"/>
<rect x="56.407" y="70.793" transform="matrix(0.0465 0.9989 -0.9989 0.0465 135.2403 17.1444)" fill-rule="evenodd" clip-rule="evenodd" fill="#FFFFFF" width="4.466" height="17.236"/>
<polygon fill-rule="evenodd" clip-rule="evenodd" fill="#FFFFFF" points="49.782,71.172 34.354,81.073 50.64,89.485 "/>
</svg>
