<?xml version="1.0" encoding="utf-8"?>
<!-- Generator: Adobe Illustrator 16.0.0, SVG Export Plug-In . SVG Version: 6.00 Build 0)  -->
<!DOCTYPE svg PUBLIC "-//W3C//DTD SVG 1.1//EN" "http://www.w3.org/Graphics/SVG/1.1/DTD/svg11.dtd">
<svg version="1.1" id="图层_1" xmlns="http://www.w3.org/2000/svg" xmlns:xlink="http://www.w3.org/1999/xlink" x="0px" y="0px"
	 width="170.079px" height="170.079px" viewBox="0 0 170.079 170.079" enable-background="new 0 0 170.079 170.079"
	 xml:space="preserve">
<path fill-rule="evenodd" clip-rule="evenodd" fill="#FFFFFF" d="M104.933,69.264c-7.447,1.875-12.695,7.527-14.167,14.684
	c-2.571,12.521-11.148,20.582-23.48,22.736c-1.351,0.234-1.651-11.145-1.071-10.1C74.712,95.358,79.553,91,81.188,82.981
	c2.773-13.582,10.717-21.732,24.568-23.914"/>
<path fill="none" stroke="#FFFFFF" stroke-width="6" stroke-miterlimit="10" d="M126.622,66.018
	c-0.896,6.5-6.893,11.041-13.393,10.145c-6.498-0.9-11.038-6.896-10.141-13.396c0.898-6.496,6.895-11.037,13.391-10.141
	C122.979,53.524,127.521,59.52,126.622,66.018z"/>
<path fill="none" stroke="#FFFFFF" stroke-width="6" stroke-miterlimit="10" d="M69.271,61.088
	c-0.899,6.5-6.895,11.039-13.393,10.143c-6.499-0.898-11.04-6.895-10.144-13.395c0.898-6.496,6.895-11.037,13.393-10.141
	C65.628,48.594,70.17,54.59,69.271,61.088z"/>
<path fill="none" stroke="#FFFFFF" stroke-width="6" stroke-miterlimit="10" d="M67.551,103.34
	c-0.896,6.502-6.894,11.041-13.393,10.145c-6.5-0.896-11.04-6.895-10.142-13.393c0.896-6.498,6.893-11.041,13.393-10.145
	C63.909,90.85,68.447,96.844,67.551,103.34z"/>
<path fill="#FFFFFF" d="M69.518,56.487c0,0,9.429-0.857,16.36,7.912l-5.559,6.205c0,0-3.167-6.662-12.826-5.316L69.518,56.487z"/>
<path fill="none" stroke="#FFFFFF" stroke-width="6" stroke-miterlimit="10" d="M102.237,105.651
	c0.898-6.498,6.895-11.039,13.395-10.141c6.496,0.896,11.037,6.895,10.141,13.393c-0.898,6.498-6.895,11.039-13.393,10.141
	C105.882,118.147,101.341,112.149,102.237,105.651z"/>
<path fill="#FFFFFF" d="M101.991,110.252c0,0-9.426,0.857-16.361-7.91l5.56-6.207c0,0,3.169,6.664,12.828,5.316L101.991,110.252z"/>
</svg>
