<?xml version="1.0" encoding="utf-8"?>
<!-- Generator: Adobe Illustrator 16.0.0, SVG Export Plug-In . SVG Version: 6.00 Build 0)  -->
<!DOCTYPE svg PUBLIC "-//W3C//DTD SVG 1.1//EN" "http://www.w3.org/Graphics/SVG/1.1/DTD/svg11.dtd">
<svg version="1.1" id="图层_1" xmlns="http://www.w3.org/2000/svg" xmlns:xlink="http://www.w3.org/1999/xlink" x="0px" y="0px"
	 width="170.079px" height="170.079px" viewBox="0 0 170.079 170.079" enable-background="new 0 0 170.079 170.079"
	 xml:space="preserve">
<path fill-rule="evenodd" clip-rule="evenodd" fill="#FFFFFF" d="M83.364,40.538c2.664,0,8.445,0.418,8.695,0.455
	c7.986,1.146,14.896,4.604,21.01,9.766c4.761,4.023,8.237,8.975,10.967,14.887c-5.74,0-11.059-0.021-16.376,0.008
	c-2.775,0.016-4.974,1.867-5.413,4.453c-0.36,2.109,1.24,4.482,3.76,5.311c1.049,0.346,2.207,0.486,3.319,0.494
	c5.96,0.047,11.919,0.021,17.945,0.021c1.833,12.502-0.997,23.4-8.292,33.305c-2.329-2.287-4.338-4.262-6.571-6.455
	c2.109-2.016,4.207-3.945,6.222-5.961c2.423-2.422,2.56-5.66,0.416-7.771c-2.094-2.063-5.065-1.91-7.509,0.596
	c-1.978,2.023-3.756,4.242-6.244,7.082c-2.427-2.781-4.152-4.918-6.048-6.891c-2.623-2.73-5.442-2.928-7.689-0.715
	c-2.188,2.152-2.05,5.238,0.503,7.748c2.006,1.973,4.164,3.787,6.708,6.08c-2.679,2.449-4.774,4.238-6.723,6.172
	c-2.537,2.521-2.684,5.684-0.505,7.744c2.197,2.084,5.219,1.826,7.775-0.715c1.992-1.982,3.933-4.012,5.276-5.387
	c2.385,2.195,4.516,4.156,6.827,6.281c-12.534,9.018-26.141,11.75-40.876,6.514c-13.184-4.686-21.889-13.924-26.568-27.646
	c1.395,0,2.319,0,3.244,0c7.89,0,15.783,0.016,23.673-0.01c2.691-0.01,4.729-1.684,5.053-4.023c0.382-2.77-0.897-4.953-3.519-5.686
	c-1.259-0.352-2.607-0.543-3.915-0.549c-8.747-0.045-17.495-0.018-26.243-0.016c0-3.045,0.438-9.564,0.481-9.809
	c2.258-13.236,9.479-23.051,20.861-29.855c2.822-1.686,6.017-2.746,9.301-4.207c0,3.041,0,5.369,0,7.662
	c-3.551,0.24-6.972,0.201-10.29,0.771c-2.991,0.514-4.142,2.627-3.803,5.656c0.288,2.557,2.188,4.074,5.2,4.098
	c2.917,0.025,5.836,0.006,9.065,0.006c0,3.047-0.014,5.775,0.004,8.504c0.025,3.811,2.033,6.107,5.252,6.039
	c3.112-0.064,5-2.287,5.029-5.961c0.021-2.807,0.004-5.613,0.004-8.582c3.3,0,6.14,0.02,8.979-0.004
	c3.802-0.033,5.783-2.299,5.282-6.004c-0.329-2.41-2.671-4.168-5.896-4.264c-2.72-0.082-5.444-0.016-8.374-0.016
	C83.364,46.393,83.364,43.465,83.364,40.538z M61.701,78.352c0.045-3.371-2.317-5.889-5.493-5.854
	c-2.957,0.031-5.319,2.395-5.388,5.387c-0.076,3.436,2.129,5.918,5.362,6.031C59.162,84.02,61.658,81.502,61.701,78.352z
	 M61.711,103.854c0.035-3.277-2.164-5.621-5.321-5.674c-3.216-0.055-5.537,2.207-5.57,5.422c-0.031,3.32,2.096,5.59,5.325,5.67
	C59.381,109.358,61.676,107.122,61.711,103.854z"/>
</svg>
