<?xml version="1.0" encoding="utf-8"?>
<!-- Generator: Adobe Illustrator 16.0.0, SVG Export Plug-In . SVG Version: 6.00 Build 0)  -->
<!DOCTYPE svg PUBLIC "-//W3C//DTD SVG 1.1//EN" "http://www.w3.org/Graphics/SVG/1.1/DTD/svg11.dtd">
<svg version="1.1" id="图层_1" xmlns="http://www.w3.org/2000/svg" xmlns:xlink="http://www.w3.org/1999/xlink" x="0px" y="0px"
	 width="170.079px" height="170.079px" viewBox="0 0 170.079 170.079" enable-background="new 0 0 170.079 170.079"
	 xml:space="preserve">
<path fill-rule="evenodd" clip-rule="evenodd" fill="#FFFFFF" d="M84.308,118.829c-4.88-0.352-8.928-2.784-11.341-7.723
	c-0.766-1.576-0.853-3.086,0.972-3.949c1.813-0.856,2.846,0.128,3.657,1.736c2.808,5.577,9.743,6.488,13.427,1.783
	c0.519-0.662,0.851-1.472,1.263-2.219c0.785-1.434,1.939-2.068,3.472-1.294c1.482,0.751,1.74,1.952,1.112,3.53
	C94.984,115.408,89.985,118.838,84.308,118.829z"/>
<path fill-rule="evenodd" clip-rule="evenodd" fill="#FFFFFF" d="M44.091,81.123c0.303-3.437,0.273-6.524,0.888-9.476
	c1.902-9.134,9.501-15.254,18.805-15.29c13.742-0.053,27.483-0.031,41.225-0.009c11.791,0.019,20.158,8.345,20.273,20.127
	c0.014,1.396,0.002,2.791,0.002,4.136c7.073,2.136,7.614,2.897,7.613,10.467c-0.002,3.308-0.002,6.614,0.001,9.923
	c0.012,7.91,0.012,7.91-7.563,10.487c0,1.835,0.028,3.827-0.003,5.817c-0.156,9.928-6.681,18.023-16.458,19.497
	c-7.082,1.067-14.344,1.853-21.452,1.839c-0.806-0.002-1.098-0.02-1.498-0.064c-3.953-0.445-3.78-2.425-3.84-3.74
	c-0.062-1.309,0.381-3.629,3.465-3.896c4.593-0.396,9.309,0.168,13.856,0.967c9.689,1.705,20.405-1.963,20.64-13.619
	c0.294-14.498,0.261-29.009,0.049-43.508c-0.114-7.696-6.581-13.567-14.617-13.633c-13.738-0.116-27.481-0.104-41.22-0.012
	c-8.492,0.057-14.697,6.193-14.821,14.67c-0.138,9.414-0.047,18.829-0.048,28.244c-0.002,3.076-1.055,5.545-4.169,6.546
	c-3.944,1.271-7.694-1.112-7.869-5.306c-0.252-6.094-0.193-12.211-0.021-18.312C37.445,82.894,40.352,81.457,44.091,81.123z"/>
<path fill-rule="evenodd" clip-rule="evenodd" fill="#FFFFFF" d="M84.908,129.848c-6.745,0-13.489,0.049-20.234-0.012
	c-8.037-0.074-12.876-4.838-12.911-12.787c-0.057-13.489-0.066-26.979-0.009-40.467c0.035-8.088,5.018-13.066,13.117-13.113
	c13.109-0.076,26.216-0.104,39.324-0.051c8.81,0.032,13.742,4.977,13.731,13.732c-0.019,13.229-0.101,26.456-0.234,39.684
	c-0.086,8.691-4.509,12.965-13.314,13.007C97.889,129.873,91.398,129.846,84.908,129.848z M84.854,67.741
	c-6.609,0-13.221-0.038-19.831,0.012c-6.021,0.047-9.209,3.195-9.224,9.143c-0.033,13.219-0.034,26.441,0.011,39.661
	c0.021,5.95,3.208,9.229,9.175,9.265c13.197,0.08,26.394,0.084,39.589,0.002c6.167-0.037,9.097-3.006,9.137-9.17
	c0.088-13.348,0.104-26.694,0.075-40.041c-0.011-5.557-3.214-8.793-8.72-8.857C98.33,67.678,91.592,67.735,84.854,67.741z"/>
<path fill-rule="evenodd" clip-rule="evenodd" fill="#FFFFFF" d="M68.4,96.122c-3.006,0.013-5.572-2.443-5.684-5.441
	c-0.114-3.057,2.624-5.925,5.664-5.928c3.044-0.006,5.807,2.854,5.701,5.903C73.981,93.649,71.419,96.112,68.4,96.122z"/>
<path fill-rule="evenodd" clip-rule="evenodd" fill="#FFFFFF" d="M106.159,90.412c0.021,3.027-2.486,5.615-5.523,5.702
	c-3.191,0.09-5.887-2.588-5.812-5.776c0.069-2.991,2.733-5.595,5.705-5.577C103.495,84.778,106.138,87.431,106.159,90.412z"/>
<path fill="#FFFFFF" d="M69.092,48.932c0.692,0.855,0.559,2.107-0.295,2.799l0,0c-0.856,0.692-2.109,0.56-2.801-0.295l-7.246-8.965
	c-0.692-0.855-0.559-2.108,0.296-2.801l0,0c0.856-0.689,2.108-0.557,2.8,0.298L69.092,48.932z"/>
<path fill="#FFFFFF" d="M77.934,41.852c0.472,0.993,0.052,2.18-0.941,2.652l0,0c-0.993,0.474-2.182,0.052-2.654-0.941l-4.956-10.406
	c-0.474-0.993-0.052-2.182,0.941-2.654l0,0c0.993-0.472,2.18-0.051,2.653,0.941L77.934,41.852z"/>
<path fill="#FFFFFF" d="M104.431,48.93c-0.692,0.857-0.559,2.109,0.297,2.801l0,0c0.854,0.69,2.107,0.56,2.799-0.295l7.248-8.965
	c0.69-0.855,0.557-2.108-0.297-2.801l0,0c-0.856-0.689-2.109-0.557-2.799,0.298L104.431,48.93z"/>
<path fill="#FFFFFF" d="M95.592,41.852c-0.474,0.993-0.054,2.18,0.939,2.652l0,0c0.993,0.474,2.182,0.052,2.654-0.941l4.958-10.408
	c0.472-0.991,0.05-2.18-0.943-2.652l0,0c-0.993-0.472-2.179-0.051-2.653,0.941L95.592,41.852z"/>
<path fill="#FFFFFF" d="M88.491,40.934c0.005,1.098-0.879,1.996-1.979,2.001l0,0c-1.1,0.007-1.996-0.88-2.003-1.979l-0.064-11.527
	c-0.005-1.098,0.88-1.994,1.979-2.001l0,0c1.101-0.007,1.997,0.88,2.001,1.979L88.491,40.934z"/>
</svg>
