<?xml version="1.0" encoding="utf-8"?>
<!-- Generator: Adobe Illustrator 16.0.0, SVG Export Plug-In . SVG Version: 6.00 Build 0)  -->
<!DOCTYPE svg PUBLIC "-//W3C//DTD SVG 1.1//EN" "http://www.w3.org/Graphics/SVG/1.1/DTD/svg11.dtd">
<svg version="1.1" id="图层_1" xmlns="http://www.w3.org/2000/svg" xmlns:xlink="http://www.w3.org/1999/xlink" x="0px" y="0px"
	 width="170.079px" height="170.079px" viewBox="0 0 170.079 170.079" enable-background="new 0 0 170.079 170.079"
	 xml:space="preserve">
<g>
	<path fill-rule="evenodd" clip-rule="evenodd" fill="#FFFFFF" d="M39.063,83.346c0.036-25.426,20.756-46.113,46.039-45.967
		c25.49,0.145,46.05,20.719,45.94,45.971c-0.106,25.57-20.632,46.059-46.082,46.012C59.594,129.311,39.025,108.692,39.063,83.346z
		 M124.951,83.413c0.04-21.984-17.834-39.883-39.879-39.938C63.15,43.424,45.223,61.303,45.16,83.284
		c-0.063,21.986,17.805,39.924,39.829,39.984C106.958,123.329,124.912,105.42,124.951,83.413z"/>
	<path fill-rule="evenodd" clip-rule="evenodd" fill="#FFFFFF" d="M106.666,63.012c1.4,2.033,2.873,3.877,4.03,5.9
		c9.744,17.043,0.054,38.898-19.099,43.184c-5.361,1.199-10.649,0.953-15.861-0.773c-0.533-0.176-0.863-0.125-1.283,0.266
		c-1.168,1.088-2.763,1.283-4.158,0.602c-1.385-0.674-2.237-2.084-2.069-3.658c0.074-0.707-0.142-1.068-0.69-1.492
		c-8.398-6.498-12.441-15.078-11.859-25.674c0.379-6.932,3.104-12.969,7.834-18.076c0.145-0.156,0.273-0.395,0.45-0.439
		c0.288-0.074,0.714-0.135,0.888,0.02c0.158,0.143,0.155,0.609,0.055,0.865c-0.117,0.291-0.418,0.514-0.645,0.76
		c-11.195,12.195-9.221,31.807,4.184,41.531c0.17,0.125,0.358,0.219,0.559,0.342c1.342-1.297,2.865-1.807,4.592-0.957
		c1.799,0.885,2.322,2.463,2.08,4.344c9.568,3.818,24.541,1.703,32.905-11.033c7.777-11.844,4.874-26.58-3.067-34.451
		c-2.973,3.223-5.943,6.439-8.756,9.488c1.084,1.838,2.344,3.49,3.1,5.35c2.337,5.748,1.484,11.152-2.256,16.096
		c-0.31,0.412-0.494,0.723-0.32,1.291c0.488,1.59-0.107,3.18-1.418,4.111c-1.31,0.93-3.023,0.959-4.355-0.02
		c-0.451-0.33-0.807-0.363-1.313-0.193c-9.73,3.27-19.836-3.121-21.061-13.336c-0.578-4.814,0.857-9.023,4.039-12.654
		c0.039-0.045,0.084-0.088,0.124-0.133c0.325-0.379,0.714-0.664,1.166-0.266c0.456,0.404,0.206,0.811-0.139,1.178
		c-1.546,1.654-2.702,3.553-3.302,5.729c-1.574,5.719-0.36,10.813,3.943,14.908c4.214,4.012,9.269,4.984,14.834,3.283
		c0.082-0.027,0.155-0.09,0.297-0.168c-0.476-1.904-0.107-3.582,1.68-4.646c1.489-0.889,2.977-0.674,4.357,0.336
		c4.561-4.445,5.191-14-0.693-19.686c-0.135,0.229-0.237,0.496-0.417,0.691c-1.666,1.822-3.333,3.646-5.028,5.441
		c-0.383,0.406-0.473,0.705-0.236,1.26c0.814,1.91,0.544,3.73-0.855,5.27c-1.398,1.535-3.189,2.014-5.166,1.365
		c-1.973-0.646-3.104-2.104-3.369-4.158c-0.441-3.432,2.915-6.211,6.32-5.207c0.625,0.182,0.922,0.033,1.313-0.389
		c5.936-6.469,11.889-12.926,17.836-19.387c0.166-0.18,0.332-0.357,0.498-0.537c0.836-0.889,1.631-1.055,2.277-0.473
		c0.668,0.602,0.571,1.451-0.276,2.387C107.759,61.831,107.18,62.454,106.666,63.012z M88.364,84.315
		c0.014-1.658-1.403-3.102-3.054-3.111c-1.73-0.01-3.131,1.389-3.131,3.123c0,1.658,1.431,3.08,3.09,3.072
		C86.932,87.391,88.35,85.979,88.364,84.315z"/>
	<path fill-rule="evenodd" clip-rule="evenodd" fill="#FFFFFF" d="M122.234,86.475c0,1.295-1.031,2.336-2.309,2.33
		c-1.281-0.004-2.3-1.045-2.297-2.342c0.004-1.303,1.02-2.324,2.307-2.324C121.217,84.143,122.236,85.178,122.234,86.475z"/>
	<path fill-rule="evenodd" clip-rule="evenodd" fill="#FFFFFF" d="M55.681,96.727c-0.016,1.27-1.085,2.33-2.344,2.32
		c-1.256-0.01-2.314-1.094-2.299-2.355c0.016-1.277,1.067-2.316,2.339-2.314C54.627,94.379,55.695,95.467,55.681,96.727z"/>
</g>
</svg>
