<?xml version="1.0" encoding="utf-8"?>
<!-- Generator: Adobe Illustrator 16.0.0, SVG Export Plug-In . SVG Version: 6.00 Build 0)  -->
<!DOCTYPE svg PUBLIC "-//W3C//DTD SVG 1.1//EN" "http://www.w3.org/Graphics/SVG/1.1/DTD/svg11.dtd">
<svg version="1.1" id="图层_1" xmlns="http://www.w3.org/2000/svg" xmlns:xlink="http://www.w3.org/1999/xlink" x="0px" y="0px"
	 width="99.213px" height="99.213px" viewBox="0 0 99.213 99.213" enable-background="new 0 0 99.213 99.213" xml:space="preserve">
<g>
	<path fill="#AEE23B" d="M30.612,72.746c0,3.201-2.596,5.797-5.797,5.797l0,0c-3.201,0-5.797-2.596-5.797-5.797V26.502
		c0-3.201,2.596-5.797,5.797-5.797l0,0c3.201,0,5.797,2.596,5.797,5.797V72.746z"/>
	<path fill="#FFCC66" d="M45.306,58.473c2.092,2.381,5.721,2.617,8.102,0.525l0,0c2.383-2.092,2.617-5.719,0.527-8.102L29.077,22.59
		c-2.09-2.381-5.719-2.617-8.102-0.525l0,0c-2.383,2.092-2.617,5.719-0.525,8.102L45.306,58.473z"/>
	<path fill="#669FFF" d="M68.599,72.781c0,3.201,2.596,5.795,5.797,5.795l0,0c3.201,0,5.797-2.594,5.797-5.795V26.537
		c0-3.201-2.596-5.797-5.797-5.797l0,0c-3.201,0-5.797,2.596-5.797,5.797V72.781z"/>
	<circle fill="#FFFFFF" cx="74.396" cy="73.307" r="1.422"/>
	<circle fill="#FFFFFF" cx="24.815" cy="73.273" r="1.422"/>
	<circle fill="#FFFFFF" cx="24.81" cy="26.686" r="1.422"/>
	<path fill="#66CDFF" d="M53.909,58.506c-2.092,2.383-5.721,2.619-8.102,0.525l0,0c-2.383-2.092-2.619-5.719-0.527-8.102
		l24.857-28.305c2.09-2.383,5.719-2.617,8.102-0.525l0,0c2.383,2.092,2.617,5.719,0.525,8.102L53.909,58.506z"/>
	<circle fill="#FFFFFF" cx="49.705" cy="54.779" r="1.421"/>
	<circle fill="#FFFFFF" cx="74.39" cy="26.719" r="1.422"/>
</g>
</svg>
