<?xml version="1.0" encoding="utf-8"?>
<!-- Generator: Adobe Illustrator 16.0.0, SVG Export Plug-In . SVG Version: 6.00 Build 0)  -->
<!DOCTYPE svg PUBLIC "-//W3C//DTD SVG 1.1//EN" "http://www.w3.org/Graphics/SVG/1.1/DTD/svg11.dtd">
<svg version="1.1" id="Layer_1" xmlns="http://www.w3.org/2000/svg" xmlns:xlink="http://www.w3.org/1999/xlink" x="0px" y="0px"
	 width="96px" height="96px" viewBox="0 0 96 96" enable-background="new 0 0 96 96" xml:space="preserve">
<path d="M89.898,27.969h-0.004H75.467V12.161H59.223l-1.601,4.403c-0.305,0.837-1.1,1.392-1.989,1.392H1.513
	c0,0,0.065,58.736,0.065,59.178c0,3.11,2.088,5.744,5.051,6.49c0.4,0.122,0.819,0.19,1.248,0.198c0.12,0.01,0.256,0.017,0.408,0.017
	c0.148,0,68.382-0.016,68.382-0.016c2.054,0,3.857-1.364,4.417-3.34l13.181-46.506c0.145-0.446,0.223-0.923,0.223-1.417
	C94.487,30.025,92.435,27.969,89.898,27.969z M76.667,79.231H8.44c-0.052,0.004-0.102,0.017-0.154,0.017
	c-0.044,0.006-2.711,0.121-2.117-2.114l1.936-6.533l10.75-38.04h71.04L76.667,79.231z"/>
</svg>
