<?xml version="1.0" encoding="utf-8"?>
<!-- Generator: Adobe Illustrator 16.0.0, SVG Export Plug-In . SVG Version: 6.00 Build 0)  -->
<!DOCTYPE svg PUBLIC "-//W3C//DTD SVG 1.1//EN" "http://www.w3.org/Graphics/SVG/1.1/DTD/svg11.dtd">
<svg version="1.1" id="图层_1" xmlns="http://www.w3.org/2000/svg" xmlns:xlink="http://www.w3.org/1999/xlink" x="0px" y="0px"
	 width="85px" height="97px" viewBox="0 0 85 97" enable-background="new 0 0 85 97" xml:space="preserve">
<g>
	<g>
		<path fill="#00B9EE" d="M60.023,40.541c0,2.136-1.73,3.867-3.865,3.867H31.156c-2.135,0-3.865-1.731-3.865-3.867V24.178
			c0-2.135,1.73-3.865,3.865-3.865h25.002c2.135,0,3.865,1.73,3.865,3.865V40.541z"/>
		<path fill="#AEDFE3" d="M58.055,39.025c0,2.136-1.732,3.867-3.867,3.867H33.127c-2.135,0-3.865-1.731-3.865-3.867V25.693
			c0-2.135,1.73-3.865,3.865-3.865h21.061c2.135,0,3.867,1.73,3.867,3.865V39.025z"/>
		<circle fill="#AEDFE3" cx="29.261" cy="22.131" r="0.54"/>
		<circle fill="#AEDFE3" cx="58.054" cy="22.131" r="0.54"/>
		<circle fill="#AEDFE3" cx="29.261" cy="42.352" r="0.54"/>
		<circle fill="#AEDFE3" cx="58.054" cy="42.352" r="0.54"/>
	</g>
	<g>
		<path fill="#00B9EE" d="M55.535,60.93c0,1.504-1.219,2.724-2.723,2.724H35.203c-1.506,0-2.725-1.22-2.725-2.724V49.404
			c0-1.504,1.219-2.724,2.725-2.724h17.609c1.504,0,2.723,1.22,2.723,2.724V60.93z"/>
		<path fill="#FCB963" stroke="#B8E9F4" stroke-miterlimit="10" d="M54.148,59.863c0,1.504-1.219,2.723-2.723,2.723H36.59
			c-1.504,0-2.723-1.219-2.723-2.723v-9.392c0-1.504,1.219-2.724,2.723-2.724h14.836c1.504,0,2.723,1.22,2.723,2.724V59.863z"/>
		<circle fill="#AEDFE3" cx="33.866" cy="47.962" r="0.38"/>
		<circle fill="#AEDFE3" cx="54.148" cy="47.962" r="0.381"/>
		<circle fill="#AEDFE3" cx="33.866" cy="62.205" r="0.38"/>
		<circle fill="#AEDFE3" cx="54.148" cy="62.205" r="0.381"/>
	</g>
	<path fill="#00B9EE" d="M50.855,69.354c0,0.82-0.664,1.484-1.482,1.484h-10.73c-0.82,0-1.484-0.664-1.484-1.484l-0.496-3.383
		c0-0.82,0.664-1.484,1.484-1.484h11.721c0.82,0,1.484,0.664,1.484,1.484L50.855,69.354z"/>
	<g>
		<circle fill="#FFFFFF" stroke="#00B9EE" stroke-width="3" stroke-miterlimit="10" cx="50.263" cy="30.063" r="5.183"/>
		<circle fill="#1D1E1E" cx="50.262" cy="30.063" r="1.779"/>
	</g>
	<g>
		<circle fill="#FFFFFF" stroke="#00B9EE" stroke-width="3" stroke-miterlimit="10" cx="37.053" cy="30.063" r="5.182"/>
		<circle fill="#1D1E1E" cx="37.053" cy="30.063" r="1.779"/>
	</g>
	<path fill="#FCBA63" d="M52.436,38.883c0,1.092-0.887,1.977-1.977,1.977H36.857c-1.092,0-1.977-0.885-1.977-1.977l0,0
		c0-1.092,0.885-1.977,1.977-1.977h13.602C51.549,36.906,52.436,37.791,52.436,38.883L52.436,38.883z"/>
	<rect x="38.648" y="39.709" fill="#FCFCFC" width="2.713" height="1.15"/>
	<rect x="45.297" y="39.709" fill="#FCFCFC" width="2.713" height="1.15"/>
	<rect x="41.975" y="39.709" fill="#FCFCFC" width="2.711" height="1.15"/>
	<polygon fill="#00B9EE" points="46.563,20.313 50.654,12.016 52.117,12.016 49.844,20.313 	"/>
	<circle fill="#FA2B61" cx="51.562" cy="11.623" r="2.222"/>
	<rect x="41.361" y="44.408" fill="#AEDFE3" width="4.441" height="2.272"/>
	<path fill-rule="evenodd" clip-rule="evenodd" fill="#FA2B61" d="M49.984,58.565c-0.025-0.026-0.045-0.048-0.064-0.071
		c-0.58-0.699-1.16-1.398-1.74-2.097c-0.043-0.051-0.053-0.09-0.02-0.148c0.129-0.22,0.252-0.441,0.371-0.664
		c0.027-0.049,0.061-0.069,0.127-0.068c0.246,0.003,0.492,0.003,0.738,0.001c0.061-0.002,0.094,0.016,0.121,0.061
		c0.129,0.207,0.26,0.412,0.391,0.618c0.016,0.024,0.033,0.05,0.057,0.085c0.021-0.029,0.039-0.049,0.053-0.07
		c0.137-0.209,0.275-0.417,0.412-0.628c0.029-0.046,0.063-0.067,0.129-0.066c0.238,0.003,0.477,0.003,0.717,0.001
		c0.059-0.001,0.094,0.012,0.123,0.059c0.135,0.22,0.277,0.437,0.412,0.656c0.018,0.029,0.018,0.083-0.004,0.108
		c-0.592,0.729-1.188,1.458-1.783,2.188C50.014,58.539,50,58.55,49.984,58.565z"/>
	<polyline fill="none" stroke="#FA2B61" stroke-linejoin="round" stroke-miterlimit="10" points="50.299,58.021 49.174,56.43 
		47.334,58.021 45.08,56.826 42.758,58.35 41.156,55.517 40.006,58.565 38.848,54.568 35.275,59.082 34.139,59.082 	"/>
	<g>
		<polygon fill="#FA2B61" points="64.979,45.679 64.822,43.579 66.18,41.813 67.357,42.07 66.5,43.947 66.156,45.938 		"/>
		<polygon fill="#FA2B61" points="68.055,46.945 69.525,45.439 69.619,43.212 68.551,42.652 68.004,44.642 66.986,46.387 		"/>
		<polygon fill="#AEDFE4" points="55.77,50.255 60.48,52.939 60.48,56.518 55.846,54.213 		"/>
		<polygon fill="#AEDFE4" points="60.912,52.977 63.889,46.945 66.402,49.199 62.979,55.167 		"/>
		<path fill="#07B1D8" d="M56.172,53.387v-4.319c0,0,2.799-0.493,4.125,2.387L56.172,53.387z"/>
		<path fill="#221F20" d="M60.766,53.116v3.438c0,0,1.588,0.441,2.039-1.049L60.766,53.116z"/>
		<path fill="#00B9EE" d="M68.982,48.472c-0.904,1.47-2.826,1.93-4.297,1.026c-1.469-0.902-1.928-2.826-1.025-4.296"/>
		<path fill="#FCB963" d="M67.998,47.748c0.596-0.965,0.295-2.229-0.67-2.824c-0.967-0.596-2.23-0.295-2.826,0.671"/>
	</g>
	<g>
		<polygon fill="#FA2B61" points="22.869,45.5 23.027,43.4 21.668,41.634 20.488,41.893 21.348,43.77 21.691,45.759 		"/>
		<polygon fill="#FA2B61" points="19.791,46.768 18.322,45.261 18.227,43.033 19.297,42.474 19.846,44.463 20.859,46.209 		"/>
		<polygon fill="#AEDFE4" points="32.078,50.076 27.367,52.761 27.367,56.34 32.002,54.035 		"/>
		<polygon fill="#AEDFE4" points="26.936,52.799 23.959,46.768 21.445,49.021 24.869,54.989 		"/>
		<path fill="#07B1D8" d="M31.676,53.208v-4.319c0,0-2.799-0.492-4.125,2.387L31.676,53.208z"/>
		<path fill="#221F20" d="M27.082,52.938v3.438c0,0-1.588,0.441-2.039-1.049L27.082,52.938z"/>
		<path fill="#00B9EE" d="M18.865,48.293c0.904,1.471,2.826,1.93,4.297,1.027c1.469-0.903,1.928-2.826,1.025-4.297"/>
		<path fill="#FCB963" d="M19.85,47.57c-0.596-0.966-0.295-2.23,0.672-2.825c0.965-0.595,2.229-0.294,2.824,0.671"/>
	</g>
	<g>
		<circle fill="#221F20" cx="40.438" cy="77.951" r="1.288"/>
		<path fill="#AEDFE4" d="M42.303,71.515h-3.729v6.325h0.275c-0.008-0.063-0.02-0.123-0.02-0.188c0-0.889,0.721-1.607,1.607-1.607
			c0.889,0,1.609,0.719,1.609,1.607c0,0.064-0.012,0.125-0.02,0.188h0.275V71.515z"/>
		<path fill="#AEDFE4" d="M42.758,84.375h-4.637l0.453-6.325h0.275c-0.008,0.063-0.02,0.123-0.02,0.187
			c0,0.889,0.721,1.609,1.607,1.609c0.889,0,1.609-0.721,1.609-1.609c0-0.063-0.012-0.124-0.02-0.187h0.275L42.758,84.375z"/>
		<path fill="#00B9EE" d="M37.025,86.082c0-1.885,1.527-3.414,3.412-3.414c1.887,0,3.416,1.529,3.416,3.414"/>
	</g>
	<g>
		<circle fill="#221F20" cx="48.01" cy="77.951" r="1.287"/>
		<path fill="#AEDFE4" d="M49.873,71.515h-3.727v6.325h0.273c-0.006-0.063-0.018-0.123-0.018-0.188c0-0.889,0.719-1.607,1.607-1.607
			s1.607,0.719,1.607,1.607c0,0.064-0.012,0.125-0.02,0.188h0.275V71.515z"/>
		<path fill="#AEDFE4" d="M50.328,84.375h-4.637l0.455-6.325h0.273c-0.006,0.063-0.018,0.123-0.018,0.187
			c0,0.889,0.719,1.609,1.607,1.609s1.607-0.721,1.607-1.609c0-0.063-0.012-0.124-0.02-0.187h0.275L50.328,84.375z"/>
		<path fill="#00B9EE" d="M44.596,86.082c0-1.885,1.527-3.414,3.414-3.414c1.885,0,3.414,1.529,3.414,3.414"/>
	</g>
	<polyline fill="none" stroke="#FA2B61" stroke-linejoin="round" stroke-miterlimit="10" points="50.018,56.213 52.436,57.869 
		53.908,57.869 	"/>
	<text transform="matrix(1 0 0 1 36.6738 52.7617)" fill="#FFFFFF" font-family="'AvenirLTStd-Heavy'" font-size="2.0848">HELLO WORLD</text>
	<rect x="37.025" y="85.978" fill="#00B9EE" width="6.828" height="1.168"/>
	<rect x="44.596" y="85.978" fill="#00B9EE" width="6.828" height="1.168"/>
</g>
</svg>
