<?xml version="1.0" encoding="utf-8"?>
<!-- Generator: Adobe Illustrator 16.0.0, SVG Export Plug-In . SVG Version: 6.00 Build 0)  -->
<!DOCTYPE svg PUBLIC "-//W3C//DTD SVG 1.1//EN" "http://www.w3.org/Graphics/SVG/1.1/DTD/svg11.dtd">
<svg version="1.1" id="Layer_1" xmlns="http://www.w3.org/2000/svg" xmlns:xlink="http://www.w3.org/1999/xlink" x="0px" y="0px"
	 width="72px" height="72px" viewBox="0 0 72 72" enable-background="new 0 0 72 72" xml:space="preserve">
<g>
	<g>
		<path d="M58.13,68h-44C6.476,68,4,65.102,4,57.309V14.06C4,6.444,6.182,4,14.13,4h34c0.463,0,0.91,0.16,1.269,0.453l17.685,14.351
			C67.546,19.184,68,19.752,68,20.351v36.958C68,64.553,66.208,68,58.13,68z M14.13,8C8.42,8,8,8.736,8,14.06v43.25
			C8,62.938,8.662,64,14.13,64h44c5.037,0,5.87-0.563,5.87-6.691V21.297L47.415,8H14.13z"/>
	</g>
	<g>
		<path d="M48.931,29h-25.6C20.89,29,19,28.475,19,24.659V7c0-0.553,0.447-1,1-1s1,0.447,1,1v17.659C21,26.501,20.966,27,23.331,27
			h25.6C50.63,27,51,27,51,24.659V10c0-0.553,0.447-1,1-1s1,0.447,1,1v14.659C53,27.432,52.458,29,48.931,29z"/>
	</g>
	<g>
		<path d="M43,21c-1.104,0-2-0.896-2-2v-6c0-1.104,0.896-2,2-2s2,0.896,2,2v6C45,20.104,44.104,21,43,21z"/>
	</g>
	<g>
		<g>
			<g>
				<path d="M28.63,43h-8c-0.553,0-1-0.447-1-1s0.447-1,1-1h8c0.553,0,1,0.447,1,1S29.183,43,28.63,43z"/>
			</g>
			<g>
				<path d="M42.63,43h-10c-0.553,0-1-0.447-1-1s0.447-1,1-1h10c0.553,0,1,0.447,1,1S43.183,43,42.63,43z"/>
			</g>
			<g>
				<path d="M50.63,43h-4c-0.553,0-1-0.447-1-1s0.447-1,1-1h4c0.553,0,1,0.447,1,1S51.183,43,50.63,43z"/>
			</g>
		</g>
		<g>
			<g>
				<path d="M24.63,48h-4c-0.553,0-1-0.447-1-1s0.447-1,1-1h4c0.553,0,1,0.447,1,1S25.183,48,24.63,48z"/>
			</g>
			<g>
				<path d="M36.63,48h-8c-0.553,0-1-0.447-1-1s0.447-1,1-1h8c0.553,0,1,0.447,1,1S37.183,48,36.63,48z"/>
			</g>
			<g>
				<path d="M50.63,48h-10c-0.553,0-1-0.447-1-1s0.447-1,1-1h10c0.553,0,1,0.447,1,1S51.183,48,50.63,48z"/>
			</g>
		</g>
		<g>
			<g>
				<path d="M30.63,54h-10c-0.553,0-1-0.447-1-1s0.447-1,1-1h10c0.553,0,1,0.447,1,1S31.183,54,30.63,54z"/>
			</g>
			<g>
				<path d="M37.63,54h-3c-0.553,0-1-0.447-1-1s0.447-1,1-1h3c0.553,0,1,0.447,1,1S38.183,54,37.63,54z"/>
			</g>
		</g>
	</g>
</g>
</svg>
