<?xml version="1.0" encoding="utf-8"?>
<!-- Generator: Adobe Illustrator 16.0.0, SVG Export Plug-In . SVG Version: 6.00 Build 0)  -->
<!DOCTYPE svg PUBLIC "-//W3C//DTD SVG 1.1//EN" "http://www.w3.org/Graphics/SVG/1.1/DTD/svg11.dtd">
<svg version="1.1" id="图层_1" xmlns="http://www.w3.org/2000/svg" xmlns:xlink="http://www.w3.org/1999/xlink" x="0px" y="0px"
	 width="38px" height="17.563px" viewBox="0 0 38 17.563" enable-background="new 0 0 38 17.563" xml:space="preserve">
<circle fill="#D5724F" cx="4.471" cy="8.939" r="1.37"/>
<g>
	
		<polygon fill-rule="evenodd" clip-rule="evenodd" fill="#E67E22" stroke="#E67E22" stroke-width="0.3874" stroke-linejoin="round" stroke-miterlimit="10" points="
		13.238,9.181 16.268,8.547 14.929,11.334 16.469,14.018 13.402,13.607 11.326,15.9 10.769,12.858 7.946,11.593 10.669,10.122 
		11.001,7.045 	"/>
	
		<polygon fill-rule="evenodd" clip-rule="evenodd" fill="#F1C40F" stroke="#F1C40F" stroke-width="0.3874" stroke-linejoin="round" stroke-miterlimit="10" points="
		13.176,9.014 16.203,8.377 14.865,11.167 16.405,13.851 13.338,13.44 11.264,15.733 10.705,12.69 7.883,11.425 10.604,9.954 
		10.938,6.879 	"/>
</g>
<g>
	
		<polygon fill-rule="evenodd" clip-rule="evenodd" fill="#E67E22" stroke="#E67E22" stroke-width="0.354" stroke-linejoin="round" stroke-miterlimit="10" points="
		30.768,9.558 33.238,8.182 32.827,10.979 34.899,12.902 32.111,13.377 30.922,15.942 29.61,13.438 26.803,13.099 28.78,11.076 
		28.234,8.302 	"/>
	
		<polygon fill-rule="evenodd" clip-rule="evenodd" fill="#F1C40F" stroke="#F1C40F" stroke-width="0.354" stroke-linejoin="round" stroke-miterlimit="10" points="
		30.667,9.428 33.137,8.052 32.727,10.85 34.798,12.773 32.01,13.248 30.822,15.813 29.509,13.31 26.703,12.97 28.679,10.947 
		28.134,8.174 	"/>
</g>
<g>
	
		<polygon fill-rule="evenodd" clip-rule="evenodd" fill="#E67E22" stroke="#E67E22" stroke-width="0.2642" stroke-linejoin="round" stroke-miterlimit="10" points="
		23.011,3.586 24.855,2.56 24.548,4.646 26.096,6.083 24.015,6.437 23.126,8.351 22.148,6.482 20.053,6.229 21.529,4.72 
		21.121,2.649 	"/>
	
		<polygon fill-rule="evenodd" clip-rule="evenodd" fill="#F1C40F" stroke="#F1C40F" stroke-width="0.2642" stroke-linejoin="round" stroke-miterlimit="10" points="
		22.937,3.489 24.779,2.463 24.474,4.551 26.02,5.985 23.938,6.341 23.053,8.254 22.072,6.386 19.979,6.133 21.453,4.624 
		21.046,2.554 	"/>
</g>
<circle fill="#F1C40F" cx="4.471" cy="8.813" r="1.363"/>
</svg>
