<?xml version="1.0" encoding="utf-8"?>
<!-- Generator: Adobe Illustrator 17.0.0, SVG Export Plug-In . SVG Version: 6.00 Build 0)  -->
<!DOCTYPE svg PUBLIC "-//W3C//DTD SVG 1.1//EN" "http://www.w3.org/Graphics/SVG/1.1/DTD/svg11.dtd">
<svg version="1.1" id="图层_1" xmlns="http://www.w3.org/2000/svg" xmlns:xlink="http://www.w3.org/1999/xlink" x="0px" y="0px"
	 width="40px" height="22px" viewBox="0 0 40 22" enable-background="new 0 0 40 22" xml:space="preserve">
<g>
	<path fill="#FFFFFF" d="M33.055,19.528c0,0.606-0.864,0.967-1.859,0.812L7.291,16.611c-0.363-0.057-0.696-0.388-0.696-0.742V5.627
		c0-0.354,0.318-0.686,0.68-0.742l23.907-3.729c0.996-0.155,1.874,0.206,1.874,0.812V19.528z"/>
	<polygon fill="#CCCCCC" points="27.041,3.695 27.041,17.801 7.797,15.391 7.797,6.105 	"/>
	<path fill="#CCCCCC" d="M29.544,9.387c0.884-0.02,1.619,0.41,1.619,0.962c0,0.552-0.736,0.992-1.619,0.984
		c-0.859-0.008-1.536-0.439-1.536-0.962S28.687,9.406,29.544,9.387z"/>
	
		<line fill="none" stroke="#F2F2F2" stroke-width="1.2251" stroke-linecap="round" stroke-miterlimit="10" x1="32.667" y1="2.071" x2="32.667" y2="19.298"/>
</g>
<path fill="#FFFFFF" d="M20.325,9.637h-4.65l1.27-1.27c0.289-0.289,0.289-0.755,0-1.044l-0.065-0.065
	c-0.289-0.289-0.755-0.289-1.044,0L13.26,9.834l-0.065,0.065c-0.289,0.289-0.289,0.755,0,1.044l0.065,0.065l2.576,2.576
	c0.289,0.289,0.755,0.289,1.044,0l0.065-0.065c0.289-0.289,0.289-0.755,0-1.044l-1.27-1.27h4.65c0.408,0,0.738-0.331,0.738-0.738
	v-0.091C21.063,9.967,20.733,9.637,20.325,9.637z"/>
</svg>
