<?xml version="1.0" encoding="utf-8"?>
<!-- Generator: Adobe Illustrator 17.0.0, SVG Export Plug-In . SVG Version: 6.00 Build 0)  -->
<!DOCTYPE svg PUBLIC "-//W3C//DTD SVG 1.1//EN" "http://www.w3.org/Graphics/SVG/1.1/DTD/svg11.dtd">
<svg version="1.1" id="图层_1" xmlns="http://www.w3.org/2000/svg" xmlns:xlink="http://www.w3.org/1999/xlink" x="0px" y="0px"
	 width="40px" height="22px" viewBox="0 0 40 22" enable-background="new 0 0 40 22" xml:space="preserve">
<path fill="#FFFFFF" d="M31.945,14.04l-2.54-2.54l2.54-2.54c0.351-0.351,0.351-0.919,0-1.27L31.31,7.055
	c-0.351-0.351-0.919-0.351-1.27,0l-2.54,2.54l-2.54-2.54c-0.351-0.351-0.919-0.351-1.27,0L23.055,7.69
	c-0.351,0.351-0.351,0.919,0,1.27l2.54,2.54l-2.54,2.54c-0.351,0.351-0.351,0.919,0,1.27l0.635,0.635
	c0.351,0.351,0.919,0.351,1.27,0l2.54-2.54l2.54,2.54c0.351,0.351,0.919,0.351,1.27,0l0.635-0.635
	C32.296,14.959,32.296,14.391,31.945,14.04z"/>
<path fill="#FFFFFF" d="M20,18.119c0,0.489-0.421,0.865-0.885,0.71C17.836,18.401,15.591,16,14.417,16c-0.816,0-5.032,0-5.032,0
	C8.896,16,8,15.954,8,15.465V6.619C8,6.13,8.896,6,9.385,6c0,0,4.009,0,4.755,0c1.244,0,3.633-2.358,4.976-2.787
	C19.581,3.065,20,3.476,20,3.965V18.119z"/>
</svg>
