<?xml version="1.0" encoding="utf-8"?>
<!-- Generator: Adobe Illustrator 17.0.0, SVG Export Plug-In . SVG Version: 6.00 Build 0)  -->
<!DOCTYPE svg PUBLIC "-//W3C//DTD SVG 1.1//EN" "http://www.w3.org/Graphics/SVG/1.1/DTD/svg11.dtd">
<svg version="1.1" id="图层_1" xmlns="http://www.w3.org/2000/svg" xmlns:xlink="http://www.w3.org/1999/xlink" x="0px" y="0px"
	 width="40px" height="22px" viewBox="0 0 40 22" enable-background="new 0 0 40 22" xml:space="preserve">
<g>
	<circle fill="#FFFFFF" cx="20.094" cy="10.844" r="5.906"/>
	<rect x="19" fill="#FFFFFF" width="3" height="3"/>
	<rect x="19" y="19" fill="#FFFFFF" width="3" height="3"/>
	<rect x="28" y="10" fill="#FFFFFF" width="3" height="3"/>
	<rect x="9" y="10" fill="#FFFFFF" width="3" height="3"/>
	
		<rect x="25.571" y="3.136" transform="matrix(0.7071 0.7071 -0.7071 0.7071 11.2071 -17.7843)" fill="#FFFFFF" width="3" height="3"/>
	
		<rect x="12.136" y="16.571" transform="matrix(0.7071 0.7071 -0.7071 0.7071 16.7721 -4.3492)" fill="#FFFFFF" width="3" height="3"/>
	
		<rect x="24.864" y="16.571" transform="matrix(-0.7071 0.7071 -0.7071 -0.7071 57.7843 12.2071)" fill="#FFFFFF" width="3" height="3"/>
	
		<rect x="11.429" y="3.136" transform="matrix(-0.7071 0.7071 -0.7071 -0.7071 25.3492 -1.2279)" fill="#FFFFFF" width="3" height="3"/>
</g>
</svg>
