<?xml version="1.0" encoding="utf-8"?>
<!-- Generator: Adobe Illustrator 17.0.0, SVG Export Plug-In . SVG Version: 6.00 Build 0)  -->
<!DOCTYPE svg PUBLIC "-//W3C//DTD SVG 1.1//EN" "http://www.w3.org/Graphics/SVG/1.1/DTD/svg11.dtd">
<svg version="1.1" id="图层_1" xmlns="http://www.w3.org/2000/svg" xmlns:xlink="http://www.w3.org/1999/xlink" x="0px" y="0px"
	 width="40px" height="22px" viewBox="0 0 40 22" enable-background="new 0 0 40 22" xml:space="preserve">
<g>
	<g>
		<path fill="#FFFFFF" d="M6.163,20.477c0.127,0.537,0.743,0.965,1.379,0.965h23.668c0.636,0,1.252-0.427,1.379-0.965l4.319-18.234
			c0.229-0.967-0.292-1.769-1.17-1.769H3.013c-0.878,0-1.4,0.802-1.17,1.769L6.163,20.477z"/>
		<polygon fill="#CCCCCF" points="27.497,20.446 7.449,20.446 3.939,3.784 29.915,3.784 		"/>
		<path fill="#CCCCCF" d="M32.999,13.187c-0.187,0.869-1.063,1.557-1.962,1.557c-0.899,0-1.515-0.688-1.375-1.557
			c0.145-0.894,1.033-1.637,1.978-1.637C32.585,11.55,33.192,12.293,32.999,13.187z"/>
	</g>
	
		<line fill="none" stroke="#E6E6E6" stroke-width="1.3105" stroke-linecap="round" stroke-miterlimit="10" x1="2.557" y1="1.239" x2="36.029" y2="1.239"/>
	<path fill="#FFFFFF" d="M16.955,9.241v5.066l-1.384-1.384c-0.315-0.315-0.823-0.315-1.138,0l-0.071,0.071
		c-0.315,0.315-0.315,0.823,0,1.138l2.807,2.807l0.071,0.071c0.315,0.315,0.823,0.315,1.138,0l0.071-0.071l2.807-2.807
		c0.315-0.315,0.315-0.823,0-1.138l-0.071-0.071c-0.315-0.315-0.823-0.315-1.138,0l-1.384,1.384V9.241
		c0-0.444-0.36-0.805-0.805-0.805h-0.1C17.315,8.438,16.955,8.797,16.955,9.241z"/>
</g>
</svg>
