<?xml version="1.0" encoding="utf-8"?>
<!-- Generator: Adobe Illustrator 17.0.0, SVG Export Plug-In . SVG Version: 6.00 Build 0)  -->
<!DOCTYPE svg PUBLIC "-//W3C//DTD SVG 1.1//EN" "http://www.w3.org/Graphics/SVG/1.1/DTD/svg11.dtd">
<svg version="1.1" id="图层_1" xmlns="http://www.w3.org/2000/svg" xmlns:xlink="http://www.w3.org/1999/xlink" x="0px" y="0px"
	 width="40px" height="22px" viewBox="0 0 40 22" enable-background="new 0 0 40 22" xml:space="preserve">
<path fill="#FFFFFF" d="M25.5,5.844C23.344,3.703,23,2.344,22,2c0,0-0.168,0-0.375,0h-1.25C20.168,2,20,2.168,20,2.375v12.634
	c-0.885-0.463-3.019-0.647-4.281-0.134c-1.897,0.772-2.757,2.928-2.219,4.25s3.384,1.959,5.281,1.188
	C20.633,19.557,22,17.646,22,16.114V6.266c0,0-0.002-0.531,0.545-0.531s2.991,1.906,2.772,5.047c0,0-0.169,0.438,0.222,0.547
	s1.149-0.298,1.18-0.391S28.016,8.484,25.5,5.844z"/>
</svg>
