<?xml version="1.0" encoding="utf-8"?>
<!-- Generator: Adobe Illustrator 17.0.0, SVG Export Plug-In . SVG Version: 6.00 Build 0)  -->
<!DOCTYPE svg PUBLIC "-//W3C//DTD SVG 1.1//EN" "http://www.w3.org/Graphics/SVG/1.1/DTD/svg11.dtd">
<svg version="1.1" id="图层_1" xmlns="http://www.w3.org/2000/svg" xmlns:xlink="http://www.w3.org/1999/xlink" x="0px" y="0px"
	 width="40px" height="22px" viewBox="0 0 40 22" enable-background="new 0 0 40 22" xml:space="preserve">
<g>
	<g>
		<path fill="none" stroke="#FFFFFF" stroke-width="1.0466" stroke-miterlimit="10" d="M25.049,13.669
			c-1.651-1.651-1.651-4.322,0-5.973"/>
		<path fill="none" stroke="#FFFFFF" stroke-width="1.0466" stroke-miterlimit="10" d="M23.582,15.199
			c-2.479-2.479-2.479-6.491,0-8.97"/>
		<path fill="none" stroke="#FFFFFF" stroke-width="1.0466" stroke-miterlimit="10" d="M21.693,17.025
			c-3.506-3.506-3.506-9.179,0-12.684"/>
		<path fill="none" stroke="#FFFFFF" stroke-width="1.0466" stroke-miterlimit="10" d="M19.99,18.728
			c-4.447-4.447-4.447-11.644,0-16.091"/>
	</g>
	<rect x="9" y="1" fill="#FFFFFF" width="4" height="20"/>
	<path fill="#FFFFFF" d="M31,12c0,0.552-0.448,1-1,1h-3c-0.552,0-1-0.448-1-1v-2c0-0.552,0.448-1,1-1h3c0.552,0,1,0.448,1,1V12z"/>
</g>
</svg>
