<?xml version="1.0" encoding="utf-8"?>
<!-- Generator: Adobe Illustrator 17.0.0, SVG Export Plug-In . SVG Version: 6.00 Build 0)  -->
<!DOCTYPE svg PUBLIC "-//W3C//DTD SVG 1.1//EN" "http://www.w3.org/Graphics/SVG/1.1/DTD/svg11.dtd">
<svg version="1.1" id="图层_1" xmlns="http://www.w3.org/2000/svg" xmlns:xlink="http://www.w3.org/1999/xlink" x="0px" y="0px"
	 width="40px" height="22px" viewBox="0 0 40 22" enable-background="new 0 0 40 22" xml:space="preserve">
<g>
	<g>
		<path fill="#FFFFFF" d="M33.142,16.212c0,0.36-0.088,0.698-0.458,0.756L8.432,20.869c-1.036,0.166-1.594-0.203-1.594-0.827V1.958
			c0-0.625,0.66-0.993,1.697-0.829L32.787,5.03c0.37,0.059,0.355,0.399,0.355,0.758V16.212z"/>
		<polygon fill="#CCCCCC" points="31.827,6.185 31.827,15.815 9.468,18.455 9.468,3.545 		"/>
		<path fill="#CCCCCC" d="M32.592,10.457c0.351,0.005,0.633,0.285,0.633,0.625c0,0.341-0.28,0.622-0.633,0.629
			c-0.359,0.007-0.654-0.274-0.654-0.625C31.939,10.733,32.233,10.452,32.592,10.457z"/>
	</g>
	
		<line fill="none" stroke="#F2F2F2" stroke-width="1.3152" stroke-linecap="round" stroke-miterlimit="10" x1="7.495" y1="1.794" x2="7.495" y2="20.207"/>
</g>
<path fill="#FFFFFF" d="M17.996,11.747h5.085l-1.389,1.389c-0.316,0.316-0.316,0.826,0,1.142l0.071,0.071
	c0.316,0.316,0.826,0.316,1.142,0l2.817-2.817l0.071-0.071c0.316-0.316,0.316-0.826,0-1.142l-0.071-0.071l-2.817-2.817
	c-0.316-0.316-0.826-0.316-1.142,0l-0.071,0.071c-0.316,0.316-0.316,0.826,0,1.142l1.389,1.389h-5.085
	c-0.446,0-0.808,0.362-0.808,0.808v0.101C17.189,11.385,17.55,11.747,17.996,11.747z"/>
</svg>
