<?xml version="1.0" encoding="utf-8"?>
<!-- Generator: Adobe Illustrator 17.0.0, SVG Export Plug-In . SVG Version: 6.00 Build 0)  -->
<!DOCTYPE svg PUBLIC "-//W3C//DTD SVG 1.1//EN" "http://www.w3.org/Graphics/SVG/1.1/DTD/svg11.dtd">
<svg version="1.1" id="图层_1" xmlns="http://www.w3.org/2000/svg" xmlns:xlink="http://www.w3.org/1999/xlink" x="0px" y="0px"
	 width="40px" height="22px" viewBox="0 0 40 22" enable-background="new 0 0 40 22" xml:space="preserve">
<g id="图层_2">
</g>
<path fill="#FFFFFF" d="M31,16.188C31,17.031,30.79,17,30.531,17h-5.063C25.21,17,25,17.031,25,16.188v-0.204
	C25,15.141,25.21,15,25.469,15h5.063C30.79,15,31,15.141,31,15.984V16.188z"/>
<path fill="#FFFFFF" d="M31,18.531c0,0.259-0.188,0.578-0.712,0.891C29.805,19.709,29.369,20,27.98,20
	c-1.462,0-1.987-0.328-2.437-0.641C25.305,19.194,25,18.79,25,18.531v-0.063C25,18.21,25.252,18,25.563,18h2.418h2.457
	C30.748,18,31,18.21,31,18.469V18.531z"/>
<path fill="none" stroke="#FFFFFF" stroke-miterlimit="10" d="M27.888,1.151c-2.721,0-5.112,2.206-5.112,4.927
	c0,1.722,1.058,2.998,1.849,4.391C25.016,11.156,25,12.5,25,12.5c0,0.552,0.448,1.5,1,1.5h0.776H29h0.776c0.552,0,1-0.948,1-1.5
	c0,0-0.016-1.094,0.375-1.781C31.942,9.326,33,7.925,33,6.203C33,3.482,30.609,1.151,27.888,1.151z"/>
<path fill="#FFFFFF" d="M15,16.188C15,17.031,14.79,17,14.531,17H9.469C9.21,17,9,17.031,9,16.188v-0.204C9,15.141,9.21,15,9.469,15
	h5.063C14.79,15,15,15.141,15,15.984V16.188z"/>
<path fill="#FFFFFF" d="M15,18.531c0,0.259-0.188,0.578-0.712,0.891C13.805,19.709,13.369,20,11.98,20
	c-1.462,0-1.987-0.328-2.437-0.641C9.305,19.194,9,18.79,9,18.531v-0.063C9,18.21,9.252,18,9.563,18h2.418h2.457
	C14.748,18,15,18.21,15,18.469V18.531z"/>
<path fill="#FFFF00" stroke="#FFFF00" stroke-miterlimit="10" d="M11.888,1.151c-2.721,0-5.112,2.206-5.112,4.927
	c0,1.722,1.058,2.998,1.849,4.391C9.016,11.156,9,12.25,9,12.25c0,0.552,0.448,1.25,1,1.25h0.776H13h0.776c0.552,0,1-0.698,1-1.25
	c0,0-0.016-0.969,0.375-1.656C15.942,9.201,17,7.862,17,6.141C17,3.419,14.609,1.151,11.888,1.151z"/>
</svg>
