<?xml version="1.0" encoding="utf-8"?>
<!-- Generator: Adobe Illustrator 17.0.0, SVG Export Plug-In . SVG Version: 6.00 Build 0)  -->
<!DOCTYPE svg PUBLIC "-//W3C//DTD SVG 1.1//EN" "http://www.w3.org/Graphics/SVG/1.1/DTD/svg11.dtd">
<svg version="1.1" id="图层_1" xmlns="http://www.w3.org/2000/svg" xmlns:xlink="http://www.w3.org/1999/xlink" x="0px" y="0px"
	 width="40px" height="22px" viewBox="0 0 40 22" enable-background="new 0 0 40 22" xml:space="preserve">
<g>
	<g>
		<path fill="#FFFFFF" d="M4.178,18.351c-0.278,0.945,0.127,1.737,0.913,1.737h29.305c0.786,0,1.191-0.792,0.913-1.737L30.52,2.044
			c-0.129-0.44-0.65-0.789-1.165-0.789H10.133c-0.516,0-1.036,0.35-1.165,0.789L4.178,18.351z"/>
		<polygon fill="#CCCCCF" points="29.105,17.387 6.152,17.387 10.035,2.521 26.43,2.521 		"/>
		<path fill="#CCCCCF" d="M31.304,8.716c0.211,0.792-0.265,1.455-1.069,1.455c-0.805,0-1.591-0.664-1.75-1.455
			c-0.154-0.764,0.337-1.363,1.091-1.363C30.33,7.351,31.101,7.952,31.304,8.716z"/>
	</g>
	<path fill="#FFFFFF" d="M19.161,12.5V7.949l1.243,1.243c0.282,0.282,0.739,0.282,1.022,0l0.064-0.064
		c0.282-0.283,0.282-0.739,0-1.022l-2.521-2.521l-0.064-0.064c-0.282-0.282-0.739-0.282-1.022,0l-0.064,0.064l-2.521,2.521
		c-0.282,0.282-0.282,0.739,0,1.022l0.064,0.064c0.283,0.282,0.739,0.282,1.022,0l1.243-1.243V12.5c0,0.399,0.324,0.723,0.723,0.723
		h0.089C18.838,13.222,19.161,12.899,19.161,12.5z"/>
	
		<line fill="none" stroke="#E6E6E6" stroke-width="1.1675" stroke-linecap="round" stroke-miterlimit="10" x1="4.689" y1="19.395" x2="34.798" y2="19.395"/>
</g>
</svg>
